<svg width="26" height="26" viewBox="0 0 26 26" fill="none" xmlns="http://www.w3.org/2000/svg">
<path opacity="0.5" d="M13.4579 11.376H25.4966C25.6295 12.1179 25.6959 12.8265 25.6959 13.5019C25.6959 15.9047 25.1922 18.05 24.1848 19.9379C23.1774 21.8258 21.7411 23.3013 19.8758 24.3642C18.0104 25.4272 15.8711 25.9587 13.4579 25.9587C11.7198 25.9587 10.0649 25.6238 8.49291 24.9539C6.92095 24.284 5.56486 23.3788 4.42464 22.2383C3.28442 21.0978 2.37943 19.7414 1.70969 18.1691C1.03995 16.5968 0.705078 14.9414 0.705078 13.203C0.705078 11.4646 1.03995 9.80921 1.70969 8.23689C2.37943 6.66457 3.28442 5.30817 4.42464 4.16768C5.56486 3.0272 6.92095 2.12201 8.49291 1.45211C10.0649 0.782214 11.7198 0.447266 13.4579 0.447266C16.7789 0.447266 19.6294 1.56007 22.0095 3.78568L18.539 7.12409C17.1774 5.80644 15.4837 5.14761 13.4579 5.14761C12.0298 5.14761 10.7097 5.50748 9.49752 6.2272C8.28534 6.94692 7.32501 7.92409 6.61652 9.15869C5.90803 10.3933 5.55379 11.7414 5.55379 13.203C5.55379 14.6646 5.90803 16.0127 6.61652 17.2473C7.32501 18.4819 8.28534 19.459 9.49752 20.1788C10.7097 20.8985 12.0298 21.2584 13.4579 21.2584C14.421 21.2584 15.3066 21.1255 16.1147 20.8597C16.9228 20.594 17.587 20.2618 18.1073 19.8632C18.6276 19.4646 19.0815 19.0106 19.4689 18.5013C19.8564 17.9919 20.1414 17.5103 20.3241 17.0563C20.5068 16.6023 20.6313 16.1705 20.6977 15.7608H13.4579V11.376Z" fill="#0E99D7"/>
</svg>
