<svg width="157" height="152" viewBox="0 0 157 152" fill="none" xmlns="http://www.w3.org/2000/svg">
<path fill-rule="evenodd" clip-rule="evenodd" d="M78.3426 0.666016C93.9881 0.666016 106.671 13.3299 106.671 28.9516C106.671 44.5732 93.9881 57.237 78.3426 57.237C62.6971 57.237 50.0143 44.5732 50.0143 28.9516C50.0143 13.3299 62.6971 0.666016 78.3426 0.666016ZM31.0168 145.928C18.3595 136.747 15.5536 119.058 24.7497 106.419C33.9458 93.7809 51.6613 90.9795 64.3187 100.162C76.9762 109.344 79.7819 127.033 70.5862 139.671C61.3899 152.309 43.6741 155.111 31.0168 145.928ZM132.027 106.419C141.223 119.058 138.418 136.747 125.76 145.928C113.103 155.111 95.3871 152.309 86.1914 139.671C76.9951 127.033 79.8008 109.344 92.4582 100.162C105.116 90.9795 122.831 93.7809 132.027 106.419ZM1.72715 56.1085C6.56182 41.2516 22.5433 33.1208 37.4229 37.9482C52.3025 42.7756 60.4456 58.7332 55.6109 73.5901C50.7762 88.4469 34.7946 96.5777 19.9151 91.7503C5.03546 86.923 -3.10752 70.9659 1.72715 56.1085ZM119.243 37.9482C134.123 33.1208 150.104 41.2516 154.939 56.1085C159.774 70.9659 151.631 86.923 136.751 91.7503C121.871 96.5777 105.89 88.4469 101.055 73.5901C96.2207 58.7332 104.364 42.7756 119.243 37.9482Z" fill="#0D9CDB"/>
</svg>
