<svg width="288" height="56" viewBox="0 0 288 56" fill="none" xmlns="http://www.w3.org/2000/svg">
<rect y="0.75" width="55" height="55" rx="9" fill="#F4F4F4"/>
<g clip-path="url(#clip0_1542_2692)">
<path d="M42.0792 21.7834C42.1132 21.7322 42.1293 21.6709 42.1252 21.6094C42.121 21.5478 42.0968 21.4894 42.0563 21.4434C42.0158 21.3974 41.9613 21.3664 41.9015 21.3554C41.8418 21.3443 41.7801 21.3539 41.7263 21.3825C40.8615 21.833 40.1141 22.1916 40.1141 22.1916C39.7663 22.3541 39.4206 22.5187 39.076 22.6948C38.0067 23.2497 36.3094 23.4333 34.8405 23.4776C34.6842 23.4827 34.5328 23.5348 34.4057 23.6274C34.2785 23.72 34.1813 23.8489 34.1263 23.9977C34.0661 24.1594 34.001 24.3184 33.9311 24.4745C33.331 25.8199 32.3856 26.9762 31.1941 27.8223C30.0026 28.6684 28.609 29.1729 27.1595 29.283C25.71 29.393 24.2581 29.1046 22.9561 28.4478C21.6541 27.7911 20.5501 26.7903 19.7599 25.5505C19.2087 24.6887 22.3427 23.6095 22.1413 22.5651C22.0375 22.0492 18.563 21.1937 18.563 20.6662C18.563 16.1216 22.0842 12.8481 26.5564 12.8481C26.8007 12.8481 27.0429 12.859 27.2831 12.8808C27.4713 12.8995 27.6613 12.88 27.8421 12.8233C28.0228 12.7666 28.1906 12.6739 28.3357 12.5506C29.4423 11.5896 31.0234 10.7224 32.431 10.0589C32.4886 10.0316 32.5375 9.98855 32.5721 9.93452C32.6068 9.88049 32.6259 9.81766 32.6272 9.75317C32.6285 9.68869 32.6119 9.62512 32.5795 9.56969C32.547 9.51427 32.4999 9.4692 32.4435 9.4396C30.2057 8.27496 27.6814 7.80126 25.1818 8.0769C22.6822 8.35254 20.3167 9.36548 18.3768 10.9908C16.4368 12.6162 15.0074 14.7829 14.2646 17.2238C13.5218 19.6648 13.4982 22.2733 14.1967 24.7277C14.3323 25.2035 14.4949 25.6709 14.6835 26.1276C14.7467 26.2783 14.7626 26.4451 14.7292 26.6054C14.6957 26.7656 14.6146 26.9115 14.4967 27.0232C13.5966 27.8756 12.8357 29.0645 12.7527 30.6722C12.6488 32.7262 15.6012 33.6493 18.5837 34.0586L18.6439 34.067C18.7706 34.0839 18.8983 34.0997 19.0249 34.1145C23.6663 34.6525 28.3482 33.5406 32.3376 31.0721C33.5375 30.3302 34.6651 29.4739 35.7052 28.5149C37.688 26.6888 40.8937 23.6095 42.0792 21.7834Z" fill="#0E99D7"/>
<path d="M35.6504 31.3955C35.6884 31.3703 35.7335 31.3585 35.7788 31.3619C35.8241 31.3653 35.867 31.3836 35.901 31.4141C35.9351 31.4446 35.9583 31.4856 35.9672 31.5308C35.9761 31.5761 35.9702 31.623 35.9504 31.6645C32.8859 37.1755 28.6837 42.9997 27.1504 45.0737C27.0824 45.1668 26.9939 45.2423 26.892 45.2941C26.7901 45.3459 26.6776 45.3727 26.5636 45.3722C26.4496 45.3717 26.3373 45.3439 26.2358 45.2911C26.1343 45.2384 26.0465 45.1621 25.9794 45.0685C24.4222 42.9175 23.054 40.9437 21.8633 39.1376C24.4587 39.0306 26.9592 38.1158 29.0262 36.5172L35.6141 31.4208L35.6411 31.4008L35.6504 31.3955Z" fill="#0E99D7"/>
<path d="M35.6156 31.4209L29.0278 36.5173C26.9607 38.1159 24.4603 39.0307 21.8648 39.1377C21.3804 38.4 20.9222 37.6897 20.4904 37.0068C20.4611 36.9602 20.4443 36.9067 20.4418 36.8515C20.4392 36.7963 20.4508 36.7414 20.4756 36.6922C20.5004 36.643 20.5374 36.6013 20.583 36.5712C20.6285 36.541 20.6811 36.5235 20.7354 36.5204C24.6501 36.3031 30.3908 35.2376 35.6156 31.4209Z" fill="#0E75A3"/>
</g>
<path d="M74.2599 43.0661C71.5733 43.0661 69.3213 41.1697 68.7682 38.6411L63.8692 17.0696C63.8297 16.793 63.7902 16.556 63.7902 16.2794C63.7902 14.225 65.41 12.6051 67.4249 12.6051C69.2028 12.6051 70.6646 13.8299 71.0202 15.4892L75.0105 34.3347L79.8306 15.6868C80.2651 13.9484 81.885 12.6051 83.8209 12.6051C85.7173 12.6051 87.3371 13.9484 87.7717 15.6868L92.5522 34.1767L96.5821 15.2917C96.8982 13.7904 98.2809 12.6051 99.9008 12.6051C101.797 12.6051 103.299 14.1065 103.299 16.0029C103.299 16.2399 103.259 16.5165 103.219 16.7535L98.2809 38.6411C97.7278 41.1697 95.4363 43.0661 92.7103 43.0661C90.0632 43.0661 87.8112 41.2882 87.1791 38.7992L83.4653 24.1416L79.7515 38.7992C79.1194 41.2882 76.9069 43.0661 74.2599 43.0661ZM110.56 43.2636C106.569 43.2636 103.211 40.9326 103.211 36.7052C103.211 30.4629 109.453 29.7122 114.353 29.7122C115.261 29.7122 116.13 29.7913 117.039 29.7913C117.039 27.4998 116.802 25.8799 114.036 25.8799C112.97 25.8799 111.982 26.196 111.35 27.0257C110.797 27.7763 109.967 28.369 108.94 28.369C107.201 28.369 105.779 26.9467 105.779 25.1688C105.779 24.1021 106.293 23.1539 107.162 22.5612C109.177 21.218 111.745 20.6648 114.115 20.6648C120.318 20.6648 124.111 23.0353 124.111 29.6332C124.111 32.9124 124.032 36.1521 124.151 39.5498C124.19 41.4462 122.649 43.0661 120.713 43.0661C118.975 43.0661 117.553 41.8018 117.316 40.1424C115.617 42.4734 113.404 43.2636 110.56 43.2636ZM112.97 38.5621C115.656 38.5621 117.079 36.5077 117.079 33.9791V33.6631C116.288 33.6631 115.538 33.6236 114.748 33.6236C112.93 33.6236 110.402 33.9396 110.402 36.2706C110.402 37.7719 111.547 38.5621 112.97 38.5621ZM131.189 43.0661C129.174 43.0661 127.515 41.4067 127.515 39.3918V24.2996C127.515 22.4427 129.055 20.9019 130.912 20.9019C132.809 20.9019 134.35 22.4427 134.35 24.2996V24.8527C135.416 22.7588 137.629 20.7834 141.303 20.7834C146.795 20.7834 148.889 24.2206 148.889 29.1591V39.3918C148.889 41.4067 147.229 43.0661 145.214 43.0661C143.199 43.0661 141.54 41.4067 141.54 39.3918V30.3049C141.54 26.9862 139.683 26.354 138.419 26.354C136.918 26.354 134.863 27.1047 134.863 31.2136V39.3918C134.863 41.4067 133.204 43.0661 131.189 43.0661ZM160.58 43.2241C155.365 43.2241 151.296 38.8387 151.296 31.5691C151.296 25.6824 154.101 20.7834 160.185 20.7834C163.741 20.7834 165.519 22.6403 166.428 24.2996V15.3707C166.428 13.3558 168.087 11.6964 170.102 11.6964C172.117 11.6964 173.776 13.3558 173.776 15.3707V39.7079C173.776 41.5647 172.275 43.0661 170.418 43.0661C168.759 43.0661 167.336 41.9203 167.02 40.419C166.112 41.5252 164.492 43.2241 160.58 43.2241ZM162.674 38.2856C164.808 38.2856 166.625 36.6657 166.625 31.9642C166.625 27.7368 164.926 25.9194 162.595 25.9194C160.58 25.9194 158.684 27.4998 158.684 31.9642C158.684 36.4287 160.541 38.2856 162.674 38.2856ZM187.825 43.3426C181.306 43.3426 176.526 38.9572 176.526 32.0432C176.526 25.4849 180.793 20.6648 187.667 20.6648C194.66 20.6648 198.295 25.6034 198.453 30.4629C198.532 32.7149 197.742 33.9396 195.213 33.9396H183.558C183.835 36.5077 185.494 38.167 187.983 38.167C189.643 38.167 190.551 37.4559 191.184 36.8237C191.737 36.3101 192.329 35.7965 193.317 35.7965C194.937 35.7965 196.28 37.1398 196.28 38.8387C196.28 39.7869 195.846 40.577 195.095 41.2092C193.752 42.3549 190.947 43.3426 187.825 43.3426ZM183.598 29.6332H191.381C191.263 27.1047 189.761 25.5244 187.549 25.5244C185.336 25.5244 183.875 27.1047 183.598 29.6332ZM204.38 43.0661C202.365 43.0661 200.705 41.4067 200.705 39.3918V24.2996C200.705 22.4427 202.246 20.9019 204.103 20.9019C206 20.9019 207.54 22.4427 207.54 24.2996V25.2478H207.698C208.37 23.5885 209.437 22.3242 210.345 21.8106C210.859 21.534 211.333 21.455 211.886 21.455C214.533 21.455 215.323 23.3909 215.323 24.6552C215.323 26.1565 214.178 27.7763 212.242 27.7763C211.215 27.7763 209.95 28.2109 209.121 29.1986C208.41 30.0678 208.054 31.2926 208.054 32.9124V39.3918C208.054 41.4067 206.395 43.0661 204.38 43.0661ZM221.051 43.0661C219.036 43.0661 217.377 41.4067 217.377 39.3918V15.3707C217.377 13.3558 219.036 11.6964 221.051 11.6964C223.066 11.6964 224.725 13.3558 224.725 15.3707V39.3918C224.725 41.4067 223.066 43.0661 221.051 43.0661ZM235.909 43.2636C230.181 43.2636 228.324 39.5498 228.324 34.8878V24.5762C228.324 22.5612 229.983 20.9019 231.998 20.9019C234.013 20.9019 235.672 22.5612 235.672 24.5762V33.7421C235.672 37.0608 237.45 37.7324 238.596 37.7324C240.611 37.7324 241.954 36.1521 241.954 32.9519V24.5762C241.954 22.5612 243.614 20.9019 245.629 20.9019C247.643 20.9019 249.303 22.5612 249.303 24.5762V39.6683C249.303 41.5252 247.762 43.0661 245.866 43.0661C244.009 43.0661 242.468 41.5252 242.468 39.6683V38.8387C241.401 41.1697 239.426 43.2636 235.909 43.2636ZM260.885 43.4216C256.776 43.4216 252.391 42.3944 252.391 39.1152C252.391 37.4559 253.576 35.8755 255.512 35.8755C256.658 35.8755 257.329 36.4287 257.962 37.1793C258.633 38.009 259.107 38.5621 261.043 38.5621C263.058 38.5621 264.085 37.9695 264.085 36.6657C264.085 35.8755 263.73 35.3619 261.794 34.9669L259.107 34.4137C254.248 33.426 251.917 31.5691 251.917 28.0529C251.917 23.4699 255.828 20.6648 261.675 20.6648C265.389 20.6648 269.735 21.7711 269.735 24.8527C269.735 26.8281 268.392 27.9739 266.772 27.9739C265.587 27.9739 264.876 27.3813 264.322 26.6701C263.888 26.0775 263.295 25.4849 261.557 25.4849C259.898 25.4849 258.831 26.038 258.831 27.1837C258.831 28.0924 259.542 28.4875 261.28 28.8431L264.362 29.4752C269.103 30.4629 271.118 32.3198 271.118 35.8755C271.118 40.3005 267.997 43.4216 260.885 43.4216ZM282.005 43.2241C276.829 43.2241 275.051 40.6165 275.091 35.52L275.13 26.0775H274.024C272.681 26.0775 271.614 24.9712 271.614 23.6675C271.614 22.3242 272.681 21.218 274.024 21.218H275.367L275.525 18.2943C275.604 16.556 277.106 15.1337 278.883 15.1337C280.74 15.1337 282.242 16.635 282.242 18.4919V21.218H284.573C285.916 21.218 286.983 22.3242 286.983 23.628C286.983 24.9712 285.916 26.0775 284.573 26.0775H282.4V34.8878C282.4 37.1398 283.427 37.851 285.205 37.851C286.43 38.088 287.378 39.1942 287.378 40.498C287.378 41.6043 286.706 42.5129 285.758 42.9475C284.849 43.1056 283.585 43.2241 282.005 43.2241Z" fill="#0D9CDB"/>
<mask id="mask0_1542_2692" style="mask-type:alpha" maskUnits="userSpaceOnUse" x="63" y="11" width="225" height="33">
<path d="M74.2599 43.0661C71.5733 43.0661 69.3213 41.1697 68.7682 38.6411L63.8692 17.0696C63.8297 16.793 63.7902 16.556 63.7902 16.2794C63.7902 14.225 65.41 12.6051 67.4249 12.6051C69.2028 12.6051 70.6646 13.8299 71.0202 15.4892L75.0105 34.3347L79.8306 15.6868C80.2651 13.9484 81.885 12.6051 83.8209 12.6051C85.7173 12.6051 87.3371 13.9484 87.7717 15.6868L92.5522 34.1767L96.5821 15.2917C96.8982 13.7904 98.2809 12.6051 99.9008 12.6051C101.797 12.6051 103.299 14.1065 103.299 16.0029C103.299 16.2399 103.259 16.5165 103.219 16.7535L98.2809 38.6411C97.7278 41.1697 95.4363 43.0661 92.7103 43.0661C90.0632 43.0661 87.8112 41.2882 87.1791 38.7992L83.4653 24.1416L79.7515 38.7992C79.1194 41.2882 76.9069 43.0661 74.2599 43.0661ZM110.56 43.2636C106.569 43.2636 103.211 40.9326 103.211 36.7052C103.211 30.4629 109.453 29.7122 114.353 29.7122C115.261 29.7122 116.13 29.7913 117.039 29.7913C117.039 27.4998 116.802 25.8799 114.036 25.8799C112.97 25.8799 111.982 26.196 111.35 27.0257C110.797 27.7763 109.967 28.369 108.94 28.369C107.201 28.369 105.779 26.9467 105.779 25.1688C105.779 24.1021 106.293 23.1539 107.162 22.5612C109.177 21.218 111.745 20.6648 114.115 20.6648C120.318 20.6648 124.111 23.0353 124.111 29.6332C124.111 32.9124 124.032 36.1521 124.151 39.5498C124.19 41.4462 122.649 43.0661 120.713 43.0661C118.975 43.0661 117.553 41.8018 117.316 40.1424C115.617 42.4734 113.404 43.2636 110.56 43.2636ZM112.97 38.5621C115.656 38.5621 117.079 36.5077 117.079 33.9791V33.6631C116.288 33.6631 115.538 33.6236 114.748 33.6236C112.93 33.6236 110.402 33.9396 110.402 36.2706C110.402 37.7719 111.547 38.5621 112.97 38.5621ZM131.189 43.0661C129.174 43.0661 127.515 41.4067 127.515 39.3918V24.2996C127.515 22.4427 129.055 20.9019 130.912 20.9019C132.809 20.9019 134.35 22.4427 134.35 24.2996V24.8527C135.416 22.7588 137.629 20.7834 141.303 20.7834C146.795 20.7834 148.889 24.2206 148.889 29.1591V39.3918C148.889 41.4067 147.229 43.0661 145.214 43.0661C143.199 43.0661 141.54 41.4067 141.54 39.3918V30.3049C141.54 26.9862 139.683 26.354 138.419 26.354C136.918 26.354 134.863 27.1047 134.863 31.2136V39.3918C134.863 41.4067 133.204 43.0661 131.189 43.0661ZM160.58 43.2241C155.365 43.2241 151.296 38.8387 151.296 31.5691C151.296 25.6824 154.101 20.7834 160.185 20.7834C163.741 20.7834 165.519 22.6403 166.428 24.2996V15.3707C166.428 13.3558 168.087 11.6964 170.102 11.6964C172.117 11.6964 173.776 13.3558 173.776 15.3707V39.7079C173.776 41.5647 172.275 43.0661 170.418 43.0661C168.759 43.0661 167.336 41.9203 167.02 40.419C166.112 41.5252 164.492 43.2241 160.58 43.2241ZM162.674 38.2856C164.808 38.2856 166.625 36.6657 166.625 31.9642C166.625 27.7368 164.926 25.9194 162.595 25.9194C160.58 25.9194 158.684 27.4998 158.684 31.9642C158.684 36.4287 160.541 38.2856 162.674 38.2856ZM187.825 43.3426C181.306 43.3426 176.526 38.9572 176.526 32.0432C176.526 25.4849 180.793 20.6648 187.667 20.6648C194.66 20.6648 198.295 25.6034 198.453 30.4629C198.532 32.7149 197.742 33.9396 195.213 33.9396H183.558C183.835 36.5077 185.494 38.167 187.983 38.167C189.643 38.167 190.551 37.4559 191.184 36.8237C191.737 36.3101 192.329 35.7965 193.317 35.7965C194.937 35.7965 196.28 37.1398 196.28 38.8387C196.28 39.7869 195.846 40.577 195.095 41.2092C193.752 42.3549 190.947 43.3426 187.825 43.3426ZM183.598 29.6332H191.381C191.263 27.1047 189.761 25.5244 187.549 25.5244C185.336 25.5244 183.875 27.1047 183.598 29.6332ZM204.38 43.0661C202.365 43.0661 200.705 41.4067 200.705 39.3918V24.2996C200.705 22.4427 202.246 20.9019 204.103 20.9019C206 20.9019 207.54 22.4427 207.54 24.2996V25.2478H207.698C208.37 23.5885 209.437 22.3242 210.345 21.8106C210.859 21.534 211.333 21.455 211.886 21.455C214.533 21.455 215.323 23.3909 215.323 24.6552C215.323 26.1565 214.178 27.7763 212.242 27.7763C211.215 27.7763 209.95 28.2109 209.121 29.1986C208.41 30.0678 208.054 31.2926 208.054 32.9124V39.3918C208.054 41.4067 206.395 43.0661 204.38 43.0661ZM221.051 43.0661C219.036 43.0661 217.377 41.4067 217.377 39.3918V15.3707C217.377 13.3558 219.036 11.6964 221.051 11.6964C223.066 11.6964 224.725 13.3558 224.725 15.3707V39.3918C224.725 41.4067 223.066 43.0661 221.051 43.0661ZM235.909 43.2636C230.181 43.2636 228.324 39.5498 228.324 34.8878V24.5762C228.324 22.5612 229.983 20.9019 231.998 20.9019C234.013 20.9019 235.672 22.5612 235.672 24.5762V33.7421C235.672 37.0608 237.45 37.7324 238.596 37.7324C240.611 37.7324 241.954 36.1521 241.954 32.9519V24.5762C241.954 22.5612 243.614 20.9019 245.629 20.9019C247.643 20.9019 249.303 22.5612 249.303 24.5762V39.6683C249.303 41.5252 247.762 43.0661 245.866 43.0661C244.009 43.0661 242.468 41.5252 242.468 39.6683V38.8387C241.401 41.1697 239.426 43.2636 235.909 43.2636ZM260.885 43.4216C256.776 43.4216 252.391 42.3944 252.391 39.1152C252.391 37.4559 253.576 35.8755 255.512 35.8755C256.658 35.8755 257.329 36.4287 257.962 37.1793C258.633 38.009 259.107 38.5621 261.043 38.5621C263.058 38.5621 264.085 37.9695 264.085 36.6657C264.085 35.8755 263.73 35.3619 261.794 34.9669L259.107 34.4137C254.248 33.426 251.917 31.5691 251.917 28.0529C251.917 23.4699 255.828 20.6648 261.675 20.6648C265.389 20.6648 269.735 21.7711 269.735 24.8527C269.735 26.8281 268.392 27.9739 266.772 27.9739C265.587 27.9739 264.876 27.3813 264.322 26.6701C263.888 26.0775 263.295 25.4849 261.557 25.4849C259.898 25.4849 258.831 26.038 258.831 27.1837C258.831 28.0924 259.542 28.4875 261.28 28.8431L264.362 29.4752C269.103 30.4629 271.118 32.3198 271.118 35.8755C271.118 40.3005 267.997 43.4216 260.885 43.4216ZM282.005 43.2241C276.829 43.2241 275.051 40.6165 275.091 35.52L275.13 26.0775H274.024C272.681 26.0775 271.614 24.9712 271.614 23.6675C271.614 22.3242 272.681 21.218 274.024 21.218H275.367L275.525 18.2943C275.604 16.556 277.106 15.1337 278.883 15.1337C280.74 15.1337 282.242 16.635 282.242 18.4919V21.218H284.573C285.916 21.218 286.983 22.3242 286.983 23.628C286.983 24.9712 285.916 26.0775 284.573 26.0775H282.4V34.8878C282.4 37.1398 283.427 37.851 285.205 37.851C286.43 38.088 287.378 39.1942 287.378 40.498C287.378 41.6043 286.706 42.5129 285.758 42.9475C284.849 43.1056 283.585 43.2241 282.005 43.2241Z" fill="#0D9CDB"/>
</mask>
<g mask="url(#mask0_1542_2692)">
<path d="M30.8984 35.7638C99.9393 42.2827 253.33 34.5164 283.06 16.1084C285.958 33.8213 139.941 74.2844 30.8984 35.7638Z" fill="#0E75A3"/>
</g>
<defs>
<clipPath id="clip0_1542_2692">
<rect width="29" height="40" fill="white" transform="translate(13 7.75)"/>
</clipPath>
</defs>
</svg>
