<svg width="23" height="22" viewBox="0 0 23 22" fill="none" xmlns="http://www.w3.org/2000/svg">
<path d="M15.766 2.32524C16.9948 2.32877 18.1723 2.80006 19.0411 3.63618C19.91 4.47229 20.3998 5.6053 20.4035 6.78774V15.7118C20.3998 16.8942 19.91 18.0272 19.0411 18.8634C18.1723 19.6995 16.9948 20.1708 15.766 20.1743H6.49213C5.26333 20.1708 4.08591 19.6995 3.21701 18.8634C2.34812 18.0272 1.85835 16.8942 1.85468 15.7118V6.78774C1.85835 5.6053 2.34812 4.47229 3.21701 3.63618C4.08591 2.80006 5.26333 2.32877 6.49213 2.32524H15.766ZM15.766 0.540527H6.49213C2.92138 0.540527 0 3.3517 0 6.78774V15.7118C0 19.1478 2.92138 21.959 6.49213 21.959H15.766C19.3368 21.959 22.2582 19.1478 22.2582 15.7118V6.78774C22.2582 3.3517 19.3368 0.540527 15.766 0.540527Z" fill="white"/>
<path d="M17.159 6.78815C16.8839 6.78815 16.6149 6.70964 16.3862 6.56255C16.1574 6.41545 15.9791 6.20638 15.8738 5.96178C15.7685 5.71717 15.741 5.44801 15.7946 5.18834C15.8483 4.92866 15.9808 4.69014 16.1754 4.50292C16.3699 4.31571 16.6178 4.18821 16.8876 4.13656C17.1575 4.08491 17.4372 4.11142 17.6914 4.21274C17.9456 4.31406 18.1629 4.48564 18.3157 4.70578C18.4686 4.92592 18.5502 5.18473 18.5502 5.44949C18.5506 5.6254 18.5148 5.79964 18.4451 5.96222C18.3753 6.12481 18.2728 6.27253 18.1436 6.39691C18.0143 6.52129 17.8608 6.61988 17.6919 6.68702C17.5229 6.75416 17.3418 6.78853 17.159 6.78815ZM11.1309 7.68027C11.8647 7.68027 12.582 7.88964 13.192 8.28191C13.8021 8.67417 14.2776 9.23171 14.5584 9.88403C14.8392 10.5363 14.9127 11.2541 14.7695 11.9466C14.6264 12.6391 14.273 13.2752 13.7542 13.7745C13.2354 14.2737 12.5743 14.6137 11.8547 14.7515C11.1351 14.8892 10.3891 14.8185 9.71125 14.5483C9.03336 14.2781 8.45396 13.8206 8.04631 13.2335C7.63867 12.6464 7.42109 11.9562 7.42109 11.2502C7.42214 10.3037 7.81334 9.39625 8.50884 8.72699C9.20435 8.05772 10.1474 7.68128 11.1309 7.68027ZM11.1309 5.89555C10.0304 5.89555 8.95454 6.2096 8.03946 6.79797C7.12437 7.38634 6.41115 8.22262 5.98998 9.20105C5.56882 10.1795 5.45862 11.2561 5.67333 12.2948C5.88804 13.3335 6.41801 14.2876 7.19622 15.0365C7.97444 15.7853 8.96595 16.2953 10.0454 16.5019C11.1248 16.7085 12.2436 16.6025 13.2604 16.1972C14.2772 15.7919 15.1463 15.1056 15.7577 14.225C16.3691 13.3445 16.6955 12.3092 16.6955 11.2502C16.6955 9.83004 16.1092 8.46807 15.0657 7.46389C14.0221 6.4597 12.6068 5.89555 11.1309 5.89555Z" fill="white"/>
</svg>
