<svg width="101" height="101" viewBox="0 0 101 101" fill="none" xmlns="http://www.w3.org/2000/svg">
<circle cx="59.4337" cy="65.8068" r="28.2658" fill="#F5C9E9"/>
<path d="M14.7398 77.6332C11.3671 74.2605 13.6033 67.1852 11.8803 63.0427C10.1573 58.9002 3.55859 55.2709 3.55859 50.6884C3.55859 46.106 10.084 42.6233 11.8803 38.3342C13.6766 34.045 11.3671 27.1163 14.7398 23.7437C18.1124 20.371 25.1877 22.6072 29.3303 20.8842C33.4728 19.1612 37.1021 12.5625 41.6845 12.5625C46.267 12.5625 49.7496 19.0879 54.0388 20.8842C58.328 22.6805 65.2566 20.371 68.6293 23.7437C72.002 27.1163 69.7657 34.1916 71.4887 38.3342C73.2117 42.4767 79.8104 46.106 79.8104 50.6884C79.8104 55.2709 73.285 58.7535 71.4887 63.0427C69.6924 67.3319 72.002 74.2605 68.6293 77.6332C65.2566 81.0059 58.1813 78.7696 54.0388 80.4926C49.8963 82.2156 46.267 88.8144 41.6845 88.8144C37.1021 88.8144 33.6194 82.289 29.3303 80.4926C25.0411 78.6963 18.1124 81.0059 14.7398 77.6332Z" stroke="#303030" stroke-width="3.94406" stroke-linecap="round" stroke-linejoin="round"/>
<path d="M57.4626 41.4863L36.4157 62.5213L25.9102 52.0038" stroke="#303030" stroke-width="3.94406" stroke-linecap="round" stroke-linejoin="round"/>
</svg>
