<svg width="23" height="23" viewBox="0 0 23 23" fill="none" xmlns="http://www.w3.org/2000/svg">
<path d="M20.7409 0.375H2.58892C1.59707 0.375 0.730469 1.08867 0.730469 2.06887V20.2611C0.730469 21.2467 1.59707 22.1249 2.58892 22.1249H20.7355C21.7327 22.1249 22.4804 21.2409 22.4804 20.2611V2.06887C22.4862 1.08867 21.7327 0.375 20.7409 0.375ZM7.47246 18.5046H4.35659V8.81669H7.47246V18.5046ZM6.0223 7.34372H5.99997C5.00278 7.34372 4.35708 6.6014 4.35708 5.67218C4.35708 4.72596 5.01977 4.00112 6.0393 4.00112C7.05883 4.00112 7.68268 4.72062 7.70501 5.67218C7.70453 6.6014 7.05882 7.34372 6.0223 7.34372ZM18.8601 18.5046H15.7442V13.2075C15.7442 11.9384 15.2908 11.0713 14.1635 11.0713C13.3022 11.0713 12.7925 11.6539 12.5657 12.2214C12.4808 12.4253 12.458 12.703 12.458 12.9866V18.5046H9.34208V8.81669H12.458V10.1649C12.9114 9.5192 13.6197 8.58997 15.268 8.58997C17.3133 8.58997 18.8606 9.93817 18.8606 12.8448L18.8601 18.5046Z" fill="white"/>
</svg>
