<svg width="67" height="67" viewBox="0 0 67 67" fill="none" xmlns="http://www.w3.org/2000/svg">
<circle cx="33.6673" cy="33.3333" r="33.3333" fill="#0E99D7"/>
<path d="M29.8008 33.334V31.3606C29.8008 28.814 31.6008 27.7873 33.8008 29.054L35.5074 30.0406L37.2141 31.0273C39.4141 32.294 39.4141 34.374 37.2141 35.6406L35.5074 36.6273L33.8008 37.614C31.6008 38.8806 29.8008 37.8406 29.8008 35.3073V33.334Z" stroke="white" stroke-width="2" stroke-miterlimit="10" stroke-linecap="round" stroke-linejoin="round"/>
<path d="M33.6673 46.6686C41.0313 46.6686 47.0006 40.6993 47.0006 33.3353C47.0006 25.9713 41.0313 20.002 33.6673 20.002C26.3033 20.002 20.334 25.9713 20.334 33.3353C20.334 40.6993 26.3033 46.6686 33.6673 46.6686Z" stroke="white" stroke-width="2" stroke-linecap="round" stroke-linejoin="round"/>
</svg>
