<svg width="84" height="84" viewBox="0 0 84 84" fill="none" xmlns="http://www.w3.org/2000/svg">
<circle cx="55.7111" cy="55.4455" r="28.2658" fill="#B1E8F2"/>
<path d="M36.6482 52.6518C45.6334 52.6518 52.9174 45.3678 52.9174 36.3825C52.9174 27.3973 45.6334 20.1133 36.6482 20.1133C27.6629 20.1133 20.3789 27.3973 20.3789 36.3825C20.3789 45.3678 27.6629 52.6518 36.6482 52.6518Z" stroke="#393939" stroke-width="3.94406" stroke-linecap="round" stroke-linejoin="round"/>
<path d="M55.5301 15.0619C56.3887 15.8528 57.2022 16.6662 57.9704 17.5023L67.2236 18.8242C68.7313 21.4425 69.8933 24.2452 70.6808 27.1622L65.0544 34.6528C65.0544 34.6528 65.156 36.9576 65.0544 38.11L70.6808 45.6007C69.897 48.5189 68.7347 51.322 67.2236 53.9387L57.9704 55.2605C57.9704 55.2605 56.3774 56.9213 55.5301 57.7009L54.2082 66.9541C51.5898 68.4617 48.7872 69.6238 45.8702 70.4113L38.3796 64.7848C37.2294 64.8865 36.0725 64.8865 34.9223 64.7848L27.4317 70.4113C24.5135 69.6275 21.7104 68.4652 19.0937 66.9541L17.7718 57.7009C16.9358 56.9101 16.1223 56.0966 15.3314 55.2605L6.07831 53.9387C4.57063 51.3203 3.40855 48.5176 2.62109 45.6007L8.24754 38.11C8.24754 38.11 8.14586 35.8052 8.24754 34.6528L2.62109 27.1622C3.4049 24.244 4.56717 21.4408 6.07831 18.8242L15.3314 17.5023C16.1223 16.6662 16.9358 15.8528 17.7718 15.0619L19.0937 5.80878C21.7121 4.3011 24.5147 3.13902 27.4317 2.35156L34.9223 7.97801C36.0725 7.87631 37.2294 7.87631 38.3796 7.97801L45.8702 2.35156C48.7884 3.13537 51.5915 4.29764 54.2082 5.80878L55.5301 15.0619Z" stroke="#393939" stroke-width="3.94406" stroke-linecap="round" stroke-linejoin="round"/>
</svg>
