<svg width="120" height="121" viewBox="0 0 120 121" fill="none" xmlns="http://www.w3.org/2000/svg">
<path d="M58.3988 2.08838C58.624 0.191893 61.376 0.191893 61.6012 2.08838L63.489 17.9982C65.9266 38.5421 82.1239 54.7394 102.668 57.1771L118.577 59.0648C120.474 59.2901 120.474 62.042 118.577 62.2672L102.668 64.155C82.1239 66.5926 65.9266 82.7899 63.489 103.334L61.6012 119.243C61.376 121.14 58.624 121.14 58.3988 119.243L56.511 103.334C54.0734 82.7899 37.8761 66.5926 17.3322 64.155L1.42237 62.2672C-0.474123 62.042 -0.474123 59.2901 1.42237 59.0648L17.3322 57.1771C37.8761 54.7394 54.0734 38.5421 56.511 17.9982L58.3988 2.08838Z" fill="#C4EDFF"/>
</svg>
