<svg width="22" height="18" viewBox="0 0 22 18" fill="none" xmlns="http://www.w3.org/2000/svg">
<path d="M21.7289 2.70131C20.9235 3.05102 20.0713 3.28141 19.1993 3.38521C20.1157 2.84899 20.8049 1.9971 21.1375 0.989324C20.2711 1.49559 19.3248 1.8508 18.3391 2.03976C17.9241 1.60507 17.4249 1.25927 16.8719 1.02336C16.3189 0.787455 15.7237 0.666378 15.1225 0.667488C12.6882 0.667488 10.7182 2.60744 10.7182 4.99886C10.7165 5.3315 10.7547 5.66314 10.8319 5.98672C9.0863 5.90494 7.37705 5.45997 5.81344 4.68027C4.24984 3.90056 2.86632 2.8033 1.75139 1.45867C1.36025 2.11759 1.15339 2.8694 1.15244 3.63553C1.15244 5.13743 1.93658 6.465 3.12062 7.24277C2.41911 7.22613 1.73198 7.0406 1.11755 6.70191V6.75555C1.11755 8.85642 2.63842 10.6042 4.65133 11.002C4.2728 11.1028 3.88274 11.1539 3.491 11.154C3.21303 11.1545 2.93569 11.1275 2.66302 11.0735C3.22261 12.7944 4.85128 14.046 6.78054 14.0818C5.21288 15.2891 3.28819 15.9416 1.309 15.9368C0.957688 15.9363 0.606702 15.9154 0.257812 15.8742C2.27125 17.159 4.61172 17.8386 7.00062 17.8321C15.1131 17.8321 19.5451 11.23 19.5451 5.50396C19.5451 5.31623 19.5402 5.12849 19.5312 4.94522C20.3914 4.33376 21.1356 3.57389 21.7289 2.70131Z" fill="white"/>
</svg>
