<svg width="92" height="79" viewBox="0 0 92 79" fill="none" xmlns="http://www.w3.org/2000/svg">
<circle cx="63.2384" cy="50.5353" r="28.2658" fill="#FAD7C9"/>
<path d="M33.0009 45.9335C44.9813 45.9335 54.6933 36.2215 54.6933 24.2412C54.6933 12.2608 44.9813 2.54883 33.0009 2.54883C21.0206 2.54883 11.3086 12.2608 11.3086 24.2412C11.3086 36.2215 21.0206 45.9335 33.0009 45.9335Z" stroke="#303030" stroke-width="3.94406" stroke-miterlimit="10"/>
<path d="M2.10547 60.3952C5.89086 55.8666 10.6184 52.2251 15.9559 49.7267C21.2934 47.2283 27.1113 45.9336 33.0006 45.9336C38.8899 45.9336 44.7078 47.2283 50.0453 49.7267C55.3828 52.2251 60.1104 55.8666 63.8958 60.3952" stroke="#303030" stroke-width="3.94406" stroke-linecap="round" stroke-linejoin="round"/>
<path d="M73.7559 41.9902C77.0233 41.9902 79.672 39.6357 79.672 36.7314C79.672 33.8271 77.0233 31.4727 73.7559 31.4727C70.4886 31.4727 67.8398 33.8271 67.8398 36.7314C67.8398 39.6357 70.4886 41.9902 73.7559 41.9902Z" stroke="#303030" stroke-width="3.94406" stroke-linecap="round" stroke-linejoin="round"/>
<path d="M73.0977 31.4716V26.2129" stroke="#303030" stroke-width="3.94406" stroke-linecap="round" stroke-linejoin="round"/>
<path d="M69.155 34.102L65.2109 31.4727" stroke="#303030" stroke-width="3.94406" stroke-linecap="round" stroke-linejoin="round"/>
<path d="M69.155 39.3594L65.2109 41.9887" stroke="#303030" stroke-width="3.94406" stroke-linecap="round" stroke-linejoin="round"/>
<path d="M73.0977 41.9902V47.249" stroke="#303030" stroke-width="3.94406" stroke-linecap="round" stroke-linejoin="round"/>
<path d="M78.3594 39.3594L82.3034 41.9887" stroke="#303030" stroke-width="3.94406" stroke-linecap="round" stroke-linejoin="round"/>
<path d="M78.3594 34.102L82.3034 31.4727" stroke="#303030" stroke-width="3.94406" stroke-linecap="round" stroke-linejoin="round"/>
</svg>
