<svg width="296" height="68" viewBox="0 0 296 68" fill="none" xmlns="http://www.w3.org/2000/svg">
<path d="M54.3742 24.8092C54.4362 24.717 54.4657 24.6068 54.4581 24.496C54.4505 24.3851 54.4062 24.28 54.3322 24.1972C54.2582 24.1144 54.1587 24.0586 54.0494 24.0388C53.9402 24.0189 53.8275 24.0361 53.7291 24.0876C52.1487 24.8984 50.7827 25.5441 50.7827 25.5441C50.1471 25.8365 49.5153 26.1327 48.8855 26.4498C46.9313 27.4486 43.8293 27.779 41.1448 27.8588C40.859 27.868 40.5824 27.9618 40.3501 28.1285C40.1177 28.2952 39.94 28.5271 39.8395 28.7949C39.7294 29.0861 39.6105 29.3722 39.4828 29.6532C38.386 32.0749 36.6582 34.1564 34.4807 35.6793C32.3031 37.2022 29.7562 38.1103 27.1071 38.3085C24.458 38.5066 21.8044 37.9873 19.4249 36.8052C17.0455 35.6231 15.0278 33.8217 13.5836 31.5901C12.5762 30.0387 18.304 28.0962 17.9359 26.2163C17.7462 25.2877 11.3961 23.7477 11.3961 22.7983C11.3961 14.6179 17.8315 8.72569 26.0048 8.72569C26.4513 8.72569 26.894 8.74532 27.3329 8.78456C27.6769 8.81831 28.0242 8.78312 28.3545 8.68108C28.6848 8.57903 28.9915 8.41217 29.2567 8.19021C31.2791 6.46033 34.1686 4.89945 36.7413 3.70506C36.8464 3.65605 36.9358 3.57852 36.9991 3.48126C37.0625 3.384 37.0973 3.27091 37.0997 3.15484C37.102 3.03876 37.0719 2.92434 37.0125 2.82457C36.9532 2.7248 36.8671 2.64368 36.764 2.59041C32.6742 0.494047 28.0608 -0.358613 23.4926 0.137542C18.9244 0.633697 14.6012 2.45698 11.0558 5.38261C7.51048 8.30824 4.89803 12.2083 3.54055 16.602C2.18307 20.9957 2.1399 25.691 3.41637 30.109C3.66425 30.9654 3.96135 31.8067 4.30618 32.6288C4.42156 32.9001 4.45068 33.2003 4.38958 33.4888C4.32848 33.7772 4.18012 34.0398 3.96467 34.2409C2.31977 35.7752 0.9291 37.9153 0.777322 40.8092C0.587598 44.5063 5.98333 46.1678 11.4341 46.9046L11.5441 46.9198C11.7756 46.9501 12.0089 46.9786 12.2404 47.0052C20.7229 47.9736 29.2794 45.9722 36.5705 41.5288C38.7633 40.1935 40.8242 38.6522 42.7251 36.926C46.3489 33.639 52.2075 28.0962 54.3742 24.8092Z" fill="#0E99D7"/>
<path d="M42.622 42.1103C42.6915 42.065 42.7739 42.0438 42.8566 42.0498C42.9393 42.0559 43.0178 42.0889 43.08 42.1438C43.1422 42.1988 43.1847 42.2726 43.201 42.354C43.2173 42.4354 43.2065 42.5198 43.1703 42.5945C37.5696 52.5143 29.8896 62.998 27.0874 66.7312C26.9633 66.8986 26.8015 67.0345 26.6152 67.1278C26.4289 67.2211 26.2233 67.2693 26.015 67.2683C25.8066 67.2674 25.6015 67.2175 25.416 67.1225C25.2305 67.0275 25.07 66.8902 24.9473 66.7217C22.1015 62.8499 19.6009 59.2971 17.4248 56.0462C22.1682 55.8535 26.738 54.2069 30.5157 51.3294L42.5556 42.1559L42.6049 42.1198L42.622 42.1103Z" fill="#0E99D7"/>
<path d="M42.5593 42.1562L30.5195 51.3297C26.7418 54.2073 22.172 55.8539 17.4286 56.0466C16.5432 54.7186 15.7059 53.44 14.9166 52.2108C14.8631 52.127 14.8325 52.0306 14.8278 51.9313C14.8231 51.832 14.8444 51.7331 14.8897 51.6446C14.935 51.5561 15.0026 51.481 15.0859 51.4267C15.1692 51.3725 15.2652 51.341 15.3644 51.3354C22.5188 50.9443 33.0105 49.0264 42.5593 42.1562Z" fill="#0E75A3"/>
<path d="M81.5265 48.8649C78.8399 48.8649 76.5879 46.9685 76.0348 44.44L71.1358 22.8684C71.0963 22.5918 71.0568 22.3548 71.0568 22.0782C71.0568 20.0238 72.6766 18.404 74.6915 18.404C76.4694 18.404 77.9312 19.6287 78.2868 21.2881L82.2771 40.1336L87.0972 21.4856C87.5317 19.7472 89.1516 18.404 91.0875 18.404C92.9839 18.404 94.6037 19.7472 95.0383 21.4856L99.8188 39.9755L103.849 21.0905C104.165 19.5892 105.548 18.404 107.167 18.404C109.064 18.404 110.565 19.9053 110.565 21.8017C110.565 22.0387 110.526 22.3153 110.486 22.5523L105.548 44.44C104.994 46.9685 102.703 48.8649 99.9769 48.8649C97.3298 48.8649 95.0778 47.087 94.4457 44.598L90.7319 29.9404L87.0181 44.598C86.386 47.087 84.1735 48.8649 81.5265 48.8649ZM117.826 49.0624C113.836 49.0624 110.478 46.7314 110.478 42.5041C110.478 36.2617 116.72 35.5111 121.619 35.5111C122.528 35.5111 123.397 35.5901 124.306 35.5901C124.306 33.2986 124.069 31.6788 121.303 31.6788C120.236 31.6788 119.249 31.9948 118.616 32.8245C118.063 33.5752 117.234 34.1678 116.206 34.1678C114.468 34.1678 113.046 32.7455 113.046 30.9676C113.046 29.9009 113.559 28.9527 114.429 28.3601C116.444 27.0168 119.012 26.4637 121.382 26.4637C127.585 26.4637 131.378 28.8342 131.378 35.4321C131.378 38.7113 131.299 41.9509 131.417 45.3487C131.457 47.2451 129.916 48.8649 127.98 48.8649C126.242 48.8649 124.819 47.6006 124.582 45.9413C122.883 48.2723 120.671 49.0624 117.826 49.0624ZM120.236 44.3609C122.923 44.3609 124.345 42.3065 124.345 39.778V39.4619C123.555 39.4619 122.804 39.4224 122.014 39.4224C120.197 39.4224 117.668 39.7385 117.668 42.0695C117.668 43.5708 118.814 44.3609 120.236 44.3609ZM138.456 48.8649C136.441 48.8649 134.781 47.2055 134.781 45.1906V30.0984C134.781 28.2415 136.322 26.7007 138.179 26.7007C140.075 26.7007 141.616 28.2415 141.616 30.0984V30.6516C142.683 28.5576 144.895 26.5822 148.57 26.5822C154.061 26.5822 156.155 30.0194 156.155 34.958V45.1906C156.155 47.2055 154.496 48.8649 152.481 48.8649C150.466 48.8649 148.807 47.2055 148.807 45.1906V36.1037C148.807 32.785 146.95 32.1529 145.686 32.1529C144.184 32.1529 142.13 32.9035 142.13 37.0124V45.1906C142.13 47.2055 140.47 48.8649 138.456 48.8649ZM167.847 49.0229C162.632 49.0229 158.562 44.6375 158.562 37.368C158.562 31.4812 161.368 26.5822 167.452 26.5822C171.008 26.5822 172.785 28.4391 173.694 30.0984V21.1695C173.694 19.1546 175.354 17.4953 177.368 17.4953C179.383 17.4953 181.043 19.1546 181.043 21.1695V45.5067C181.043 47.3636 179.541 48.8649 177.685 48.8649C176.025 48.8649 174.603 47.7192 174.287 46.2178C173.378 47.3241 171.758 49.0229 167.847 49.0229ZM169.941 44.0844C172.074 44.0844 173.892 42.4645 173.892 37.7631C173.892 33.5357 172.193 31.7183 169.862 31.7183C167.847 31.7183 165.951 33.2986 165.951 37.7631C165.951 42.2275 167.807 44.0844 169.941 44.0844ZM195.092 49.1415C188.573 49.1415 183.793 44.756 183.793 37.8421C183.793 31.2837 188.059 26.4637 194.934 26.4637C201.927 26.4637 205.562 31.4022 205.72 36.2617C205.799 38.5137 205.009 39.7385 202.48 39.7385H190.825C191.102 42.3065 192.761 43.9659 195.25 43.9659C196.909 43.9659 197.818 43.2547 198.45 42.6226C199.003 42.109 199.596 41.5954 200.584 41.5954C202.203 41.5954 203.547 42.9386 203.547 44.6375C203.547 45.5857 203.112 46.3759 202.361 47.008C201.018 48.1537 198.213 49.1415 195.092 49.1415ZM190.865 35.4321H198.648C198.529 32.9035 197.028 31.3232 194.815 31.3232C192.603 31.3232 191.141 32.9035 190.865 35.4321ZM211.646 48.8649C209.631 48.8649 207.972 47.2055 207.972 45.1906V30.0984C207.972 28.2415 209.513 26.7007 211.37 26.7007C213.266 26.7007 214.807 28.2415 214.807 30.0984V31.0466H214.965C215.637 29.3873 216.703 28.123 217.612 27.6094C218.126 27.3329 218.6 27.2538 219.153 27.2538C221.8 27.2538 222.59 29.1897 222.59 30.454C222.59 31.9553 221.444 33.5752 219.508 33.5752C218.481 33.5752 217.217 34.0098 216.387 34.9975C215.676 35.8667 215.321 37.0914 215.321 38.7113V45.1906C215.321 47.2055 213.661 48.8649 211.646 48.8649ZM228.318 48.8649C226.303 48.8649 224.643 47.2055 224.643 45.1906V21.1695C224.643 19.1546 226.303 17.4953 228.318 17.4953C230.332 17.4953 231.992 19.1546 231.992 21.1695V45.1906C231.992 47.2055 230.332 48.8649 228.318 48.8649ZM243.176 49.0624C237.447 49.0624 235.59 45.3487 235.59 40.6867V30.375C235.59 28.3601 237.25 26.7007 239.265 26.7007C241.28 26.7007 242.939 28.3601 242.939 30.375V39.5409C242.939 42.8596 244.717 43.5313 245.863 43.5313C247.878 43.5313 249.221 41.9509 249.221 38.7508V30.375C249.221 28.3601 250.88 26.7007 252.895 26.7007C254.91 26.7007 256.569 28.3601 256.569 30.375V45.4672C256.569 47.3241 255.029 48.8649 253.132 48.8649C251.275 48.8649 249.734 47.3241 249.734 45.4672V44.6375C248.668 46.9685 246.692 49.0624 243.176 49.0624ZM268.152 49.2205C264.043 49.2205 259.658 48.1933 259.658 44.9141C259.658 43.2547 260.843 41.6744 262.779 41.6744C263.924 41.6744 264.596 42.2275 265.228 42.9782C265.9 43.8078 266.374 44.3609 268.31 44.3609C270.325 44.3609 271.352 43.7683 271.352 42.4645C271.352 41.6744 270.996 41.1608 269.061 40.7657L266.374 40.2126C261.514 39.2249 259.183 37.368 259.183 33.8517C259.183 29.2688 263.095 26.4637 268.942 26.4637C272.656 26.4637 277.002 27.5699 277.002 30.6516C277.002 32.627 275.658 33.7727 274.039 33.7727C272.853 33.7727 272.142 33.1801 271.589 32.4689C271.154 31.8763 270.562 31.2837 268.823 31.2837C267.164 31.2837 266.097 31.8368 266.097 32.9825C266.097 33.8912 266.809 34.2863 268.547 34.6419L271.629 35.274C276.37 36.2617 278.384 38.1186 278.384 41.6744C278.384 46.0993 275.263 49.2205 268.152 49.2205ZM289.271 49.0229C284.096 49.0229 282.318 46.4154 282.357 41.3188L282.397 31.8763H281.291C279.947 31.8763 278.881 30.7701 278.881 29.4663C278.881 28.123 279.947 27.0168 281.291 27.0168H282.634L282.792 24.0932C282.871 22.3548 284.372 20.9325 286.15 20.9325C288.007 20.9325 289.508 22.4338 289.508 24.2907V27.0168H291.839C293.183 27.0168 294.249 28.123 294.249 29.4268C294.249 30.7701 293.183 31.8763 291.839 31.8763H289.666V40.6867C289.666 42.9386 290.693 43.6498 292.471 43.6498C293.696 43.8868 294.644 44.9931 294.644 46.2969C294.644 47.4031 293.973 48.3118 293.024 48.7464C292.116 48.9044 290.852 49.0229 289.271 49.0229Z" fill="#0D9CDB"/>
<mask id="mask0_1426_3843" style="mask-type:alpha" maskUnits="userSpaceOnUse" x="71" y="17" width="224" height="33">
<path d="M81.5265 48.8649C78.8399 48.8649 76.5879 46.9685 76.0348 44.44L71.1358 22.8684C71.0963 22.5918 71.0568 22.3548 71.0568 22.0782C71.0568 20.0238 72.6766 18.404 74.6915 18.404C76.4694 18.404 77.9312 19.6287 78.2868 21.2881L82.2771 40.1336L87.0972 21.4856C87.5317 19.7472 89.1516 18.404 91.0875 18.404C92.9839 18.404 94.6037 19.7472 95.0383 21.4856L99.8188 39.9755L103.849 21.0905C104.165 19.5892 105.548 18.404 107.167 18.404C109.064 18.404 110.565 19.9053 110.565 21.8017C110.565 22.0387 110.526 22.3153 110.486 22.5523L105.548 44.44C104.994 46.9685 102.703 48.8649 99.9769 48.8649C97.3298 48.8649 95.0778 47.087 94.4457 44.598L90.7319 29.9404L87.0181 44.598C86.386 47.087 84.1735 48.8649 81.5265 48.8649ZM117.826 49.0624C113.836 49.0624 110.478 46.7314 110.478 42.5041C110.478 36.2617 116.72 35.5111 121.619 35.5111C122.528 35.5111 123.397 35.5901 124.306 35.5901C124.306 33.2986 124.069 31.6788 121.303 31.6788C120.236 31.6788 119.249 31.9948 118.616 32.8245C118.063 33.5752 117.234 34.1678 116.206 34.1678C114.468 34.1678 113.046 32.7455 113.046 30.9676C113.046 29.9009 113.559 28.9527 114.429 28.3601C116.444 27.0168 119.012 26.4637 121.382 26.4637C127.585 26.4637 131.378 28.8342 131.378 35.4321C131.378 38.7113 131.299 41.9509 131.417 45.3487C131.457 47.2451 129.916 48.8649 127.98 48.8649C126.242 48.8649 124.819 47.6006 124.582 45.9413C122.883 48.2723 120.671 49.0624 117.826 49.0624ZM120.236 44.3609C122.923 44.3609 124.345 42.3065 124.345 39.778V39.4619C123.555 39.4619 122.804 39.4224 122.014 39.4224C120.197 39.4224 117.668 39.7385 117.668 42.0695C117.668 43.5708 118.814 44.3609 120.236 44.3609ZM138.456 48.8649C136.441 48.8649 134.781 47.2055 134.781 45.1906V30.0984C134.781 28.2415 136.322 26.7007 138.179 26.7007C140.075 26.7007 141.616 28.2415 141.616 30.0984V30.6516C142.683 28.5576 144.895 26.5822 148.57 26.5822C154.061 26.5822 156.155 30.0194 156.155 34.958V45.1906C156.155 47.2055 154.496 48.8649 152.481 48.8649C150.466 48.8649 148.807 47.2055 148.807 45.1906V36.1037C148.807 32.785 146.95 32.1529 145.686 32.1529C144.184 32.1529 142.13 32.9035 142.13 37.0124V45.1906C142.13 47.2055 140.47 48.8649 138.456 48.8649ZM167.847 49.0229C162.632 49.0229 158.562 44.6375 158.562 37.368C158.562 31.4812 161.368 26.5822 167.452 26.5822C171.008 26.5822 172.785 28.4391 173.694 30.0984V21.1695C173.694 19.1546 175.354 17.4953 177.368 17.4953C179.383 17.4953 181.043 19.1546 181.043 21.1695V45.5067C181.043 47.3636 179.541 48.8649 177.685 48.8649C176.025 48.8649 174.603 47.7192 174.287 46.2178C173.378 47.3241 171.758 49.0229 167.847 49.0229ZM169.941 44.0844C172.074 44.0844 173.892 42.4645 173.892 37.7631C173.892 33.5357 172.193 31.7183 169.862 31.7183C167.847 31.7183 165.951 33.2986 165.951 37.7631C165.951 42.2275 167.807 44.0844 169.941 44.0844ZM195.092 49.1415C188.573 49.1415 183.793 44.756 183.793 37.8421C183.793 31.2837 188.059 26.4637 194.934 26.4637C201.927 26.4637 205.562 31.4022 205.72 36.2617C205.799 38.5137 205.009 39.7385 202.48 39.7385H190.825C191.102 42.3065 192.761 43.9659 195.25 43.9659C196.909 43.9659 197.818 43.2547 198.45 42.6226C199.003 42.109 199.596 41.5954 200.584 41.5954C202.203 41.5954 203.547 42.9386 203.547 44.6375C203.547 45.5857 203.112 46.3759 202.361 47.008C201.018 48.1537 198.213 49.1415 195.092 49.1415ZM190.865 35.4321H198.648C198.529 32.9035 197.028 31.3232 194.815 31.3232C192.603 31.3232 191.141 32.9035 190.865 35.4321ZM211.646 48.8649C209.631 48.8649 207.972 47.2055 207.972 45.1906V30.0984C207.972 28.2415 209.513 26.7007 211.37 26.7007C213.266 26.7007 214.807 28.2415 214.807 30.0984V31.0466H214.965C215.637 29.3873 216.703 28.123 217.612 27.6094C218.126 27.3329 218.6 27.2538 219.153 27.2538C221.8 27.2538 222.59 29.1897 222.59 30.454C222.59 31.9553 221.444 33.5752 219.508 33.5752C218.481 33.5752 217.217 34.0098 216.387 34.9975C215.676 35.8667 215.321 37.0914 215.321 38.7113V45.1906C215.321 47.2055 213.661 48.8649 211.646 48.8649ZM228.318 48.8649C226.303 48.8649 224.643 47.2055 224.643 45.1906V21.1695C224.643 19.1546 226.303 17.4953 228.318 17.4953C230.332 17.4953 231.992 19.1546 231.992 21.1695V45.1906C231.992 47.2055 230.332 48.8649 228.318 48.8649ZM243.176 49.0624C237.447 49.0624 235.59 45.3487 235.59 40.6867V30.375C235.59 28.3601 237.25 26.7007 239.265 26.7007C241.28 26.7007 242.939 28.3601 242.939 30.375V39.5409C242.939 42.8596 244.717 43.5313 245.863 43.5313C247.878 43.5313 249.221 41.9509 249.221 38.7508V30.375C249.221 28.3601 250.88 26.7007 252.895 26.7007C254.91 26.7007 256.569 28.3601 256.569 30.375V45.4672C256.569 47.3241 255.029 48.8649 253.132 48.8649C251.275 48.8649 249.734 47.3241 249.734 45.4672V44.6375C248.668 46.9685 246.692 49.0624 243.176 49.0624ZM268.152 49.2205C264.043 49.2205 259.658 48.1933 259.658 44.9141C259.658 43.2547 260.843 41.6744 262.779 41.6744C263.924 41.6744 264.596 42.2275 265.228 42.9782C265.9 43.8078 266.374 44.3609 268.31 44.3609C270.325 44.3609 271.352 43.7683 271.352 42.4645C271.352 41.6744 270.996 41.1608 269.061 40.7657L266.374 40.2126C261.514 39.2249 259.183 37.368 259.183 33.8517C259.183 29.2688 263.095 26.4637 268.942 26.4637C272.656 26.4637 277.002 27.5699 277.002 30.6516C277.002 32.627 275.658 33.7727 274.039 33.7727C272.853 33.7727 272.142 33.1801 271.589 32.4689C271.154 31.8763 270.562 31.2837 268.823 31.2837C267.164 31.2837 266.097 31.8368 266.097 32.9825C266.097 33.8912 266.809 34.2863 268.547 34.6419L271.629 35.274C276.37 36.2617 278.384 38.1186 278.384 41.6744C278.384 46.0993 275.263 49.2205 268.152 49.2205ZM289.271 49.0229C284.096 49.0229 282.318 46.4154 282.357 41.3188L282.397 31.8763H281.291C279.947 31.8763 278.881 30.7701 278.881 29.4663C278.881 28.123 279.947 27.0168 281.291 27.0168H282.634L282.792 24.0932C282.871 22.3548 284.372 20.9325 286.15 20.9325C288.007 20.9325 289.508 22.4338 289.508 24.2907V27.0168H291.839C293.183 27.0168 294.249 28.123 294.249 29.4268C294.249 30.7701 293.183 31.8763 291.839 31.8763H289.666V40.6867C289.666 42.9386 290.693 43.6498 292.471 43.6498C293.696 43.8868 294.644 44.9931 294.644 46.2969C294.644 47.4031 293.973 48.3118 293.024 48.7464C292.116 48.9044 290.852 49.0229 289.271 49.0229Z" fill="#0D9CDB"/>
</mask>
<g mask="url(#mask0_1426_3843)">
<path d="M38.166 41.5636C107.207 48.0825 260.598 40.3162 290.328 21.9082C293.225 39.6211 147.209 80.0842 38.166 41.5636Z" fill="#0E75A3"/>
</g>
</svg>
