<svg width="27" height="20" viewBox="0 0 27 20" fill="none" xmlns="http://www.w3.org/2000/svg">
<path d="M26.3134 4.94522C26.3134 2.71872 24.6323 0.927625 22.5551 0.927625C19.7415 0.799478 16.872 0.75 13.9395 0.75H13.0253C10.1 0.75 7.22538 0.799478 4.41174 0.92812C2.33961 0.92812 0.658534 2.72911 0.658534 4.95562C0.531565 6.71653 0.47773 8.47794 0.480778 10.2394C0.475699 12.0008 0.533258 13.7638 0.653456 15.5285C0.653456 17.755 2.33453 19.561 4.40666 19.561C7.36251 19.6946 10.3945 19.7539 13.4773 19.749C16.5652 19.7589 19.5888 19.6962 22.548 19.561C24.6252 19.561 26.3063 17.755 26.3063 15.5285C26.4282 13.7622 26.4841 12.0008 26.479 10.2344C26.4905 8.47299 26.4353 6.70993 26.3134 4.94522ZM10.9938 15.0931V5.37073L18.358 10.2295L10.9938 15.0931Z" fill="white"/>
</svg>
