<svg width="16" height="19" viewBox="0 0 16 19" fill="none" xmlns="http://www.w3.org/2000/svg">
<path d="M14.4469 16.7166H1.12728C0.87495 16.7166 0.632956 16.8148 0.454534 16.9895C0.276111 17.1642 0.175874 17.4012 0.175874 17.6483C0.175874 17.8954 0.276111 18.1324 0.454534 18.3071C0.632956 18.4818 0.87495 18.58 1.12728 18.58H14.4469C14.6993 18.58 14.9413 18.4818 15.1197 18.3071C15.2981 18.1324 15.3983 17.8954 15.3983 17.6483C15.3983 17.4012 15.2981 17.1642 15.1197 16.9895C14.9413 16.8148 14.6993 16.7166 14.4469 16.7166ZM1.12728 14.8532H1.2129L5.18026 14.4992C5.61486 14.4568 6.02133 14.2693 6.33146 13.9681L14.8941 5.58291C15.2264 5.23909 15.406 4.78027 15.3936 4.307C15.3811 3.83372 15.1775 3.3846 14.8275 3.05803L12.2206 0.505201C11.8804 0.192242 11.4346 0.0126706 10.968 0.000645436C10.5013 -0.0113797 10.0465 0.144981 9.68991 0.439982L1.12728 8.8252C0.819751 9.1289 0.62827 9.52695 0.584977 9.95254L0.175874 13.8377C0.163057 13.9742 0.181139 14.1117 0.22883 14.2405C0.276521 14.3694 0.352647 14.4863 0.451781 14.583C0.54068 14.6694 0.646111 14.7377 0.762028 14.7841C0.877944 14.8304 1.00207 14.8539 1.12728 14.8532ZM10.8982 1.80957L13.4955 4.35308L11.5927 6.16988L9.04296 3.67295L10.8982 1.80957Z" fill="black"/>
</svg>
