<svg width="278" height="290" viewBox="0 0 278 290" fill="none" xmlns="http://www.w3.org/2000/svg">
<path d="M230.335 106.951C230.601 106.555 230.728 106.082 230.696 105.607C230.663 105.131 230.473 104.68 230.155 104.324C229.837 103.969 229.41 103.73 228.941 103.644C228.472 103.559 227.988 103.633 227.566 103.854C220.781 107.334 214.917 110.105 214.917 110.105C212.189 111.359 209.476 112.631 206.772 113.992C198.383 118.278 185.067 119.696 173.542 120.038C172.315 120.078 171.128 120.481 170.13 121.196C169.133 121.911 168.37 122.907 167.938 124.056C167.466 125.306 166.956 126.533 166.407 127.739C161.699 138.132 154.281 147.065 144.933 153.601C135.585 160.137 124.651 164.034 113.279 164.884C101.906 165.734 90.5148 163.506 80.2998 158.433C70.0848 153.36 61.4229 145.629 55.2234 136.052C50.8985 129.394 75.4875 121.057 73.9074 112.989C73.0929 109.004 45.8325 102.395 45.8325 98.3207C45.8325 63.2138 73.4594 37.9267 108.547 37.9267C110.464 37.9267 112.364 38.0109 114.248 38.1793C115.725 38.3242 117.216 38.1732 118.634 37.7353C120.052 37.2973 121.369 36.5812 122.507 35.6286C131.189 28.2047 143.594 21.506 154.638 16.3801C155.089 16.1698 155.473 15.8371 155.745 15.4197C156.017 15.0023 156.166 14.517 156.177 14.0188C156.187 13.5206 156.057 13.0296 155.802 12.6014C155.548 12.1733 155.178 11.8251 154.736 11.5965C137.178 2.59975 117.373 -1.05953 97.7621 1.06977C78.1512 3.19907 59.5916 11.0239 44.3716 23.5795C29.1516 36.1352 17.9365 52.8728 12.1089 71.7288C6.28126 90.5849 6.09594 110.735 11.5758 129.695C12.6399 133.371 13.9153 136.981 15.3957 140.509C15.891 141.674 16.016 142.962 15.7537 144.2C15.4914 145.438 14.8545 146.565 13.9296 147.428C6.86811 154.013 0.898031 163.197 0.246453 175.616C-0.56802 191.483 22.5956 198.613 45.9954 201.775L46.4678 201.841C47.4615 201.971 48.4633 202.093 49.4569 202.207C85.872 206.363 122.605 197.774 153.905 178.705C163.319 172.974 172.166 166.36 180.326 158.951C195.883 144.845 221.034 121.057 230.335 106.951Z" fill="#0E99D7"/>
<path d="M179.887 181.198C180.185 181.004 180.539 180.913 180.894 180.939C181.249 180.965 181.586 181.107 181.853 181.342C182.12 181.578 182.303 181.895 182.373 182.244C182.443 182.593 182.396 182.956 182.241 183.276C158.198 225.848 125.228 270.84 113.198 286.861C112.665 287.58 111.971 288.163 111.171 288.564C110.371 288.964 109.488 289.171 108.594 289.167C107.7 289.163 106.819 288.948 106.023 288.541C105.226 288.133 104.537 287.544 104.011 286.821C91.7936 270.204 81.0588 254.957 71.7168 241.006C92.0801 240.179 111.698 233.112 127.915 220.763L179.602 181.394L179.814 181.239L179.887 181.198Z" fill="#0E99D7"/>
<path d="M179.617 181.395L127.931 220.764C111.713 233.113 92.0955 240.179 71.7322 241.006C67.9313 235.307 64.3368 229.82 60.9486 224.545C60.719 224.185 60.5875 223.772 60.5672 223.345C60.5469 222.919 60.6385 222.495 60.8329 222.115C61.0273 221.735 61.3177 221.413 61.6752 221.18C62.0327 220.947 62.4449 220.812 62.8708 220.788C93.5845 219.109 138.625 210.878 179.617 181.395Z" fill="#0A74A4"/>
<g clip-path="url(#clip0_1859_3590)">
<path d="M232.552 39.2358L226.994 35.4869L218.376 48.2632C217.344 49.7934 217.75 51.8845 219.281 52.9167C220.811 53.9489 222.902 53.5424 223.934 52.0121L232.552 39.2358Z" fill="#0E99D7"/>
<path d="M229.591 37.2273L226.995 35.4866L224.531 39.1391L227.741 39.9702L229.591 37.2273Z" fill="#0E99D7"/>
<path d="M269.735 63.3169L264.177 59.5679L255.559 72.3442C254.527 73.8745 254.933 75.9656 256.463 76.9977C257.994 78.0299 260.085 77.6235 261.117 76.0932L269.735 63.3169Z" fill="#0E99D7"/>
<path d="M267.022 61.4988L264.164 59.5708L262.258 62.4124L264.713 64.7826L267.022 61.4988Z" fill="#0E99D7"/>
<path d="M226.979 72.6433L215.255 74.9223L212.603 78.0594L225.87 83.0068L234.666 93.6025L237.343 89.8208L235.064 78.0964L233.748 71.3276L226.979 72.6433Z" fill="#0E99D7"/>
<path d="M225.87 83.0069L233.748 71.3278L237.343 89.821L234.666 93.6026L225.87 83.0069Z" fill="#0E99D7"/>
<path d="M211.111 35.2117L205.531 41.6775L240.759 60.9335L271.809 86.3827L275.714 78.7873L248.16 49.9617L211.111 35.2117Z" fill="#0E99D7"/>
<path d="M275.714 78.7871L248.16 49.9615L240.759 60.9332L271.81 86.3824L275.714 78.7871Z" fill="#0E99D7"/>
<path d="M264.137 41.4247C266.31 38.4058 267.132 34.6334 266.422 30.9832L265.905 28.324C265.515 26.3176 263.581 25.0127 261.574 25.4027L258.915 25.9196C255.265 26.6292 252.075 28.8046 250.09 31.9501L226.483 69.2528C223.134 74.545 221.941 80.9235 223.134 87.0637C229.286 85.8678 234.741 82.374 238.393 77.2863L264.137 41.4247Z" fill="#0E99D7"/>
<path d="M261.574 25.4027L260.97 25.5202L261.369 27.575L261.394 27.5703C262.122 31.3173 261.298 35.0148 259.125 38.0337L233.396 73.905C230.671 77.6961 226.948 80.6149 222.669 82.3498C222.675 83.9291 222.831 85.5044 223.134 87.0637C229.286 85.8678 234.741 82.374 238.393 77.2863L264.137 41.4247C266.31 38.4058 267.132 34.6334 266.422 30.9832L265.905 28.324C265.515 26.3176 263.581 25.0127 261.574 25.4027Z" fill="#0E99D7"/>
<path d="M233.744 78.7292L260.201 39.5052C261.477 37.614 260.976 35.0394 259.085 33.7638C257.194 32.4882 254.619 32.9886 253.344 34.8798L226.887 74.1038C225.611 75.995 226.112 78.5696 228.003 79.8452C229.894 81.1208 232.469 80.6204 233.744 78.7292Z" fill="#0E99D7"/>
<path d="M223.691 89.5395L221.128 90.0376L220.63 87.4751L226.765 78.3801L229.532 77.5788L229.825 80.4445L223.691 89.5395Z" fill="#0E99D7"/>
<path d="M229.83 80.4685L229.539 77.615L221.137 90.0858L223.7 89.5877L229.83 80.4685Z" fill="#0E99D7"/>
<path d="M260.358 40.3779L259.333 39.6865L259.694 39.1524C260.22 38.3728 260.413 37.4321 260.234 36.5134C260.056 35.5948 259.524 34.795 258.745 34.2692C257.965 33.7434 257.024 33.5499 256.106 33.7285C255.187 33.9071 254.387 34.4388 253.861 35.2184L253.501 35.7526L252.476 35.0612L252.836 34.527C254.307 32.3471 257.256 31.7739 259.436 33.2442C261.616 34.7146 262.189 37.6638 260.719 39.8438L260.358 40.3779Z" fill="#0E99D7"/>
<path d="M260.359 40.379L259.334 39.6876L259.695 39.1535C260.22 38.3739 260.414 37.4332 260.235 36.5145C260.057 35.5959 259.525 34.7961 258.745 34.2703C257.966 33.7445 257.025 33.551 256.107 33.7296C255.188 33.9082 254.388 34.4399 253.862 35.2195L253.502 35.7537L252.477 35.0623L252.837 34.5281C254.308 32.3482 257.257 31.775 259.437 33.2453C261.617 34.7157 262.19 37.6649 260.72 39.8449L260.359 40.379ZM223.809 90.1449L221.247 90.643C220.908 90.7087 220.591 90.4945 220.525 90.1561L220.024 87.5815C219.994 87.4244 220.024 87.2555 220.124 87.1233L226.258 78.0282C226.336 77.9128 226.457 77.8265 226.6 77.7862L229.369 76.997C229.548 76.9497 229.729 76.9772 229.886 77.0723C230.03 77.1696 230.138 77.3368 230.149 77.5229L230.455 80.3861C230.471 80.5335 230.436 80.6782 230.358 80.7937L224.224 89.8887C224.112 90.0234 223.978 90.112 223.809 90.1449ZM221.616 89.3168L223.333 88.9832L229.195 80.2924L229 78.386L227.159 78.9194L221.297 87.6102L221.628 89.3144L221.616 89.3168ZM271.928 86.9881C271.747 87.0234 271.561 86.9717 271.426 86.8598L246.271 66.2481L247.051 65.2936L271.61 85.4192L274.971 78.8955L253.338 56.2695L254.226 55.4194L276.16 78.3634C276.347 78.5528 276.377 78.8355 276.26 79.0715L272.355 86.6668C272.274 86.833 272.121 86.9505 271.928 86.9881ZM231.566 56.6129L205.235 42.2131C205.066 42.1205 204.961 41.9653 204.926 41.784C204.89 41.6027 204.942 41.4171 205.064 41.268L210.646 34.8143C210.821 34.6172 211.096 34.5511 211.34 34.6417L240.829 46.383L240.374 47.5252L211.292 35.9431L206.502 41.5028L232.159 55.5319L231.566 56.6129Z" fill="#0E99D7"/>
<path d="M230.665 43.1408L229.64 42.4495L231.694 39.4034L227.161 36.3458L224.289 40.6046L223.264 39.9132L226.487 35.1347C226.574 35.0048 226.717 34.9017 226.875 34.8712C227.032 34.8406 227.201 34.8705 227.333 34.9702L232.891 38.7192C233.021 38.8068 233.124 38.9499 233.154 39.107C233.185 39.2641 233.155 39.433 233.055 39.5653L230.665 43.1408ZM221.917 54.0232C220.914 54.2182 219.85 54.0362 218.94 53.4227C217.266 52.2932 216.713 50.0926 217.633 48.3082L218.721 48.8743C218.082 50.1025 218.465 51.6211 219.62 52.4001C220.876 53.2472 222.58 52.916 223.415 51.6623L223.542 51.4747L224.567 52.166L224.44 52.3537C223.839 53.2609 222.92 53.8282 221.917 54.0232ZM266.598 69.0584L265.573 68.367L268.874 63.473L264.341 60.4154L261.867 64.0823L260.842 63.3909L263.666 59.2044C263.754 59.0744 263.897 58.9714 264.054 58.9408C264.211 58.9103 264.38 58.9402 264.512 59.0399L270.07 62.7889C270.2 62.8765 270.303 63.0195 270.334 63.1767C270.364 63.3338 270.335 63.5027 270.235 63.6349L266.598 69.0584ZM259.099 78.105C258.084 78.3023 257.003 78.0984 256.11 77.5068C254.493 76.4162 253.915 74.3459 254.714 72.585L255.842 73.0934C255.289 74.3172 255.692 75.7441 256.804 76.4939C257.742 77.1268 259.008 77.1192 259.931 76.4504L260.653 77.4517C260.178 77.7824 259.643 77.9992 259.099 78.105ZM234.783 94.2086C234.747 94.2156 234.723 94.2203 234.684 94.2153C234.498 94.2263 234.306 94.1384 234.19 93.9977L227.537 85.9709L228.488 85.184L234.633 92.5946L236.701 89.6838L235.435 83.1689L236.643 82.934L237.959 89.7027C237.992 89.8719 237.95 90.0432 237.862 90.1731L235.186 93.9548C235.074 94.0894 234.928 94.1804 234.783 94.2086ZM222.476 82.3888L212.388 78.6299C212.2 78.5661 212.056 78.4059 212.006 78.2149C211.956 78.0238 212.003 77.814 212.137 77.6626L214.789 74.5255C214.881 74.4198 215.004 74.3456 215.137 74.3197L224.324 72.5341L224.558 73.7428L215.59 75.4861L213.641 77.7842L222.905 81.2393L222.476 82.3888Z" fill="#0E99D7"/>
<path d="M226.014 86.9694L225.648 85.7986C230.554 84.2555 234.896 81.1034 237.899 76.9323L263.642 41.0707C265.693 38.2009 266.493 34.5708 265.819 31.1018L265.302 28.4427C264.978 26.7747 263.361 25.6841 261.693 26.0083L259.033 26.5252C255.564 27.1995 252.498 29.3007 250.618 32.2753L227.011 69.5781C224.269 73.9245 222.973 79.1312 223.38 84.2577L222.157 84.3574C221.737 78.9699 223.093 73.4883 225.981 68.9253L249.588 31.6226C251.636 28.3519 255.003 26.0542 258.799 25.3165L261.458 24.7996C263.79 24.3462 266.057 25.8749 266.51 28.2077L267.027 30.8669C267.765 34.6622 266.896 38.6445 264.645 41.7789L238.902 77.6404C235.741 82.0305 231.169 85.3527 226.014 86.9694Z" fill="#0E99D7"/>
</g>
<defs>
<clipPath id="clip0_1859_3590">
<rect width="63.0439" height="63.0439" fill="white" transform="translate(203.802 36.0059) rotate(-11)"/>
</clipPath>
</defs>
</svg>
