<svg width="43" height="43" viewBox="0 0 43 43" fill="none" xmlns="http://www.w3.org/2000/svg">
<rect width="43" height="43" rx="4" fill="#FAFAFA"/>
<rect x="0.25" y="0.25" width="42.5" height="42.5" rx="3.75" stroke="black" stroke-opacity="0.24" stroke-width="0.5"/>
<rect x="12.5" y="6.5" width="11" height="29" fill="#C90000"/>
<rect x="20" y="14" width="11" height="21.5" fill="#C90000"/>
<path d="M19.9639 26.4241C19.8076 26.2203 19.6082 26.0537 19.3799 25.9361C19.1449 25.8136 18.8649 25.7521 18.5399 25.7521C18.2968 25.7495 18.0563 25.8014 17.8359 25.9041C17.6224 26.0056 17.4464 26.1681 17.3079 26.3926H17.2919V25.8641H16.2119V31.4486H17.3484V29.4881H17.3644C17.5029 29.6911 17.6804 29.8446 17.8964 29.9486C18.1124 30.0521 18.3484 30.1046 18.6044 30.1046C18.9084 30.1046 19.1739 30.0461 19.4004 29.9286C19.6269 29.8111 19.8164 29.6536 19.9684 29.4566C20.1235 29.2533 20.2388 29.0226 20.3084 28.7766C20.3836 28.5166 20.4213 28.2472 20.4204 27.9766C20.4204 27.6831 20.3829 27.4021 20.3084 27.1326C20.2399 26.8766 20.1229 26.6361 19.9639 26.4241ZM19.2359 28.4321C19.2039 28.5916 19.1489 28.7321 19.0719 28.8521C18.9944 28.9721 18.8934 29.0696 18.7679 29.1441C18.6424 29.2186 18.4864 29.2561 18.2999 29.2561C18.1184 29.2561 17.9639 29.2191 17.8359 29.1441C17.7113 29.0729 17.6057 28.9727 17.5279 28.8521C17.447 28.7234 17.3901 28.5811 17.3599 28.4321C17.325 28.2716 17.3076 28.1078 17.3079 27.9436C17.3079 27.7731 17.3239 27.6076 17.3559 27.4481C17.3879 27.2881 17.4424 27.1466 17.5199 27.0236C17.5969 26.9011 17.6984 26.8011 17.8239 26.7236C17.9489 26.6466 18.1049 26.6076 18.2919 26.6076C18.4734 26.6076 18.6264 26.6466 18.7519 26.7236C18.8774 26.8006 18.9799 26.9021 19.0599 27.0271C19.1399 27.1526 19.1969 27.2951 19.2319 27.4551C19.2664 27.6151 19.2839 27.7776 19.2839 27.9431C19.2839 28.1096 19.2679 28.2721 19.2359 28.4321ZM21.9559 25.9321C21.7264 26.0516 21.5359 26.2111 21.3839 26.4081C21.2281 26.6128 21.1115 26.8445 21.0399 27.0916C20.9622 27.3525 20.9231 27.6234 20.9239 27.8956C20.9239 28.1836 20.9624 28.4611 21.0399 28.7276C21.1169 28.9941 21.2319 29.2306 21.3839 29.4356C21.5359 29.6411 21.7289 29.8036 21.9639 29.9236C22.1984 30.0436 22.4709 30.1036 22.7799 30.1036C23.0317 30.1077 23.2815 30.0572 23.5119 29.9556C23.7279 29.8571 23.9024 29.6951 24.0359 29.4716H24.0519V30.0001H25.1319V24.2881H23.9959V26.3681H23.9799C23.8536 26.1671 23.6715 26.0073 23.4559 25.9081C23.2371 25.8047 22.9979 25.7514 22.7559 25.7521C22.4519 25.7521 22.1854 25.8121 21.9559 25.9321ZM23.5239 26.7201C23.6464 26.7946 23.7464 26.8921 23.8239 27.0121C23.9009 27.1316 23.9559 27.2706 23.9879 27.4281C24.0199 27.5851 24.0359 27.7496 24.0359 27.9196C24.0359 28.0906 24.0199 28.2556 23.9879 28.4156C23.9593 28.5663 23.9052 28.711 23.8279 28.8436C23.7529 28.9686 23.6534 29.0686 23.5279 29.1436C23.4024 29.2181 23.2464 29.2556 23.0599 29.2556C22.8839 29.2556 22.7329 29.2171 22.6079 29.1401C22.4826 29.0632 22.376 28.9593 22.2959 28.8361C22.2108 28.7053 22.1498 28.5604 22.1159 28.4081C22.0788 28.2508 22.06 28.0897 22.0599 27.9281C22.0599 27.7571 22.0769 27.5931 22.1119 27.4361C22.1464 27.2786 22.2024 27.1386 22.2799 27.0161C22.3569 26.8936 22.4599 26.7951 22.5879 26.7201C22.7159 26.6456 22.8734 26.6076 23.0599 26.6076C23.2464 26.6081 23.4009 26.6456 23.5239 26.7201ZM26.2359 30.0001H27.3719V26.6241H28.1559V25.8636H27.3719V25.6161C27.3719 25.4451 27.4054 25.3241 27.4719 25.2516C27.5384 25.1801 27.6489 25.1436 27.8039 25.1436C27.9479 25.1436 28.0864 25.1516 28.2199 25.1676V24.3201C28.1239 24.3151 28.0249 24.3086 27.9239 24.3001C27.8228 24.2923 27.7214 24.2884 27.6199 24.2886C27.1559 24.2886 26.8089 24.4056 26.5799 24.6406C26.3509 24.8751 26.2359 25.1761 26.2359 25.5446V25.8646H25.5559V26.6251H26.2359V30.0001Z" fill="white"/>
<path d="M24 6H12V36H32V14L24 6ZM31 35H13V7H23V15H31V35Z" fill="#C90000"/>
<path d="M24.5 13.5V8L30 13.5H24.5Z" fill="white"/>
</svg>
