<svg width="186" height="186" viewBox="0 0 186 186" fill="none" xmlns="http://www.w3.org/2000/svg">
<path d="M115.188 158.87L115.18 158.881L101.305 177.288L101.3 177.295C98.8114 180.613 95.7697 182 93 182C90.2303 182 87.1886 180.613 84.7 177.295L84.6949 177.288L70.8355 158.901C69.6743 157.317 67.9783 156.08 66.3065 155.244C64.6189 154.4 62.6005 153.788 60.625 153.788H46.75C23.1393 153.788 4 134.713 4 111.223V101.973V46.6575C4 23.0696 23.1439 4 46.75 4H139.25C162.856 4 182 23.0696 182 46.6575V111.223C182 134.713 162.861 153.788 139.25 153.788H125.375C121.397 153.788 117.598 155.7 115.188 158.87Z" fill="#0E99D7" stroke="white" stroke-width="7"/>
<path d="M161 79C161 116.555 130.555 147 93 147C55.4446 147 25 116.555 25 79C25 41.4446 55.4446 11 93 11C130.555 11 161 41.4446 161 79Z" fill="#0E99D7"/>
<path fill-rule="evenodd" clip-rule="evenodd" d="M88.5739 46.6872V57.3826H83.8435C68.8433 57.3826 56.1752 67.3544 52.1023 81.0348H46V99.9565H52.1023C56.1752 113.637 68.8433 123.609 83.8435 123.609C90.0309 123.609 96.5778 123.609 102.765 123.609C117.765 123.609 130.434 113.637 134.506 99.9565H140.609V81.0348H134.506C130.434 67.3544 117.765 57.3826 102.765 57.3826H98.0348V46.7155C100.887 45.0787 102.808 42.004 102.808 38.4845C102.808 33.248 98.5598 29 93.328 29C88.0914 29 83.8435 33.248 83.8435 38.4845C83.8435 41.9851 85.7451 45.0457 88.5739 46.6872ZM60.1913 90.4957C60.1913 77.4349 70.7827 66.8435 83.8435 66.8435C90.0309 66.8435 96.5778 66.8435 102.765 66.8435C115.826 66.8435 126.417 77.4349 126.417 90.4957C126.417 90.5146 126.417 90.5382 126.417 90.5572C126.417 103.556 115.826 114.148 102.765 114.148C96.5778 114.148 90.0309 114.148 83.8435 114.148C70.7827 114.148 60.1913 103.556 60.1913 90.4957ZM102.765 85.7652V95.2261H112.226V85.7652H102.765ZM74.3826 85.7652V95.2261H83.8435V85.7652H74.3826Z" fill="white"/>
</svg>
