<svg width="21" height="21" viewBox="0 0 21 21" fill="none" xmlns="http://www.w3.org/2000/svg">
<mask id="mask0_1740_3455" style="mask-type:luminance" maskUnits="userSpaceOnUse" x="0" y="0" width="21" height="21">
<path d="M20.5953 0.325684H0.183594V20.7374H20.5953V0.325684Z" fill="white"/>
</mask>
<g mask="url(#mask0_1740_3455)">
<path d="M2.80285 11.9135L8.757 10.7226C9.28866 10.6164 9.28866 10.4436 8.757 10.3374L2.80285 9.14646C2.4482 9.07566 2.10279 8.72994 2.03199 8.3756L0.841094 2.42145C0.73457 1.88947 1.04808 1.6423 1.54083 1.8697L19.7101 10.2554C20.0383 10.4069 20.0383 10.6531 19.7101 10.8046L1.54083 19.1903C1.04808 19.4177 0.73457 19.1705 0.841094 18.6385L2.03199 12.6844C2.10279 12.33 2.4482 11.9843 2.80285 11.9135Z" fill="#0E99D7"/>
</g>
</svg>
