<svg width="24" height="17" viewBox="0 0 24 17" fill="none" xmlns="http://www.w3.org/2000/svg">
<path d="M14 4.5H1C0.734784 4.5 0.48043 4.39464 0.292893 4.20711C0.105357 4.01957 0 3.76522 0 3.5C0 3.23478 0.105357 2.98043 0.292893 2.79289C0.48043 2.60536 0.734784 2.5 1 2.5H14C14.2652 2.5 14.5196 2.60536 14.7071 2.79289C14.8946 2.98043 15 3.23478 15 3.5C15 3.76522 14.8946 4.01957 14.7071 4.20711C14.5196 4.39464 14.2652 4.5 14 4.5ZM23 4.5H19C18.7348 4.5 18.4804 4.39464 18.2929 4.20711C18.1054 4.01957 18 3.76522 18 3.5C18 3.23478 18.1054 2.98043 18.2929 2.79289C18.4804 2.60536 18.7348 2.5 19 2.5H23C23.2652 2.5 23.5196 2.60536 23.7071 2.79289C23.8946 2.98043 24 3.23478 24 3.5C24 3.76522 23.8946 4.01957 23.7071 4.20711C23.5196 4.39464 23.2652 4.5 23 4.5Z" fill="#111224"/>
<path d="M16.5 7C15.8078 7 15.1311 6.79473 14.5555 6.41015C13.9799 6.02556 13.5313 5.47893 13.2664 4.83939C13.0015 4.19985 12.9322 3.49612 13.0673 2.81718C13.2023 2.13825 13.5356 1.51461 14.0251 1.02513C14.5146 0.535644 15.1383 0.202301 15.8172 0.0672531C16.4961 -0.0677952 17.1999 0.00151649 17.8394 0.266423C18.4789 0.53133 19.0256 0.979933 19.4101 1.55551C19.7947 2.13108 20 2.80777 20 3.5C20 4.42826 19.6313 5.3185 18.9749 5.97487C18.3185 6.63125 17.4283 7 16.5 7ZM16.5 2C16.2033 2 15.9133 2.08797 15.6666 2.2528C15.42 2.41762 15.2277 2.65189 15.1142 2.92598C15.0007 3.20007 14.9709 3.50167 15.0288 3.79264C15.0867 4.08361 15.2296 4.35088 15.4393 4.56066C15.6491 4.77044 15.9164 4.9133 16.2074 4.97118C16.4983 5.02906 16.7999 4.99935 17.074 4.88582C17.3481 4.77229 17.5824 4.58003 17.7472 4.33336C17.912 4.08668 18 3.79667 18 3.5C18 3.10218 17.842 2.72065 17.5607 2.43934C17.2794 2.15804 16.8978 2 16.5 2ZM23 14.5H10C9.73478 14.5 9.48043 14.3946 9.29289 14.2071C9.10536 14.0196 9 13.7652 9 13.5C9 13.2348 9.10536 12.9804 9.29289 12.7929C9.48043 12.6054 9.73478 12.5 10 12.5H23C23.2652 12.5 23.5196 12.6054 23.7071 12.7929C23.8946 12.9804 24 13.2348 24 13.5C24 13.7652 23.8946 14.0196 23.7071 14.2071C23.5196 14.3946 23.2652 14.5 23 14.5ZM5 14.5H1C0.734784 14.5 0.48043 14.3946 0.292893 14.2071C0.105357 14.0196 0 13.7652 0 13.5C0 13.2348 0.105357 12.9804 0.292893 12.7929C0.48043 12.6054 0.734784 12.5 1 12.5H5C5.26522 12.5 5.51957 12.6054 5.70711 12.7929C5.89464 12.9804 6 13.2348 6 13.5C6 13.7652 5.89464 14.0196 5.70711 14.2071C5.51957 14.3946 5.26522 14.5 5 14.5Z" fill="#111224"/>
<path d="M7.5 17C6.80777 17 6.13108 16.7947 5.55551 16.4101C4.97993 16.0256 4.53133 15.4789 4.26642 14.8394C4.00152 14.1999 3.9322 13.4961 4.06725 12.8172C4.2023 12.1383 4.53564 11.5146 5.02513 11.0251C5.51461 10.5356 6.13825 10.2023 6.81718 10.0673C7.49612 9.9322 8.19985 10.0015 8.83939 10.2664C9.47893 10.5313 10.0256 10.9799 10.4101 11.5555C10.7947 12.1311 11 12.8078 11 13.5C11 14.4283 10.6313 15.3185 9.97487 15.9749C9.3185 16.6313 8.42826 17 7.5 17ZM7.5 12C7.20333 12 6.91332 12.088 6.66665 12.2528C6.41997 12.4176 6.22771 12.6519 6.11418 12.926C6.00065 13.2001 5.97095 13.5017 6.02882 13.7926C6.0867 14.0836 6.22956 14.3509 6.43934 14.5607C6.64912 14.7704 6.91639 14.9133 7.20737 14.9712C7.49834 15.0291 7.79994 14.9994 8.07403 14.8858C8.34812 14.7723 8.58238 14.58 8.74721 14.3334C8.91203 14.0867 9 13.7967 9 13.5C9 13.1022 8.84197 12.7206 8.56066 12.4393C8.27936 12.158 7.89783 12 7.5 12Z" fill="#111224"/>
</svg>
