<svg width="32" height="32" viewBox="0 0 32 32" fill="none" xmlns="http://www.w3.org/2000/svg">
<g filter="url(#filter0_d_1482_2777)">
<path d="M18.0569 7.18134C17.6934 6.091 17.5117 5.54583 17.3377 5.30282C16.5481 4.20042 14.9089 4.20042 14.1194 5.30282C13.9454 5.54583 13.7636 6.091 13.4002 7.18134L13.0716 8.16705C12.9681 8.47758 12.9164 8.63285 12.8488 8.76523C12.5588 9.33386 12.0124 9.72773 11.3812 9.82304C11.2343 9.84523 11.0706 9.84523 10.7433 9.84523H9.85994C8.7604 9.84523 8.21064 9.84523 7.92836 9.93132C6.65025 10.3211 6.1177 11.8393 6.87222 12.9421C7.03886 13.1857 7.46816 13.5291 8.32676 14.216L9.56773 15.2088C9.81558 15.4071 9.93951 15.5062 10.0383 15.6122C10.462 16.0672 10.6474 16.6949 10.5388 17.3071C10.5135 17.4497 10.4633 17.6003 10.3629 17.9014L10.3159 18.0425C9.91196 19.2542 9.71001 19.86 9.70581 20.1673C9.68666 21.5673 11.0874 22.544 12.3945 22.0421C12.6814 21.9319 13.1849 21.5291 14.1919 20.7235C14.4757 20.4965 14.6175 20.383 14.7575 20.3042C15.3604 19.9647 16.0967 19.9647 16.6996 20.3042C16.8396 20.383 16.9814 20.4965 17.2652 20.7235C18.2722 21.5291 18.7757 21.9319 19.0626 22.0421C20.3697 22.544 21.7704 21.5673 21.7513 20.1673C21.7471 19.86 21.5451 19.2542 21.1412 18.0425L21.0942 17.9014C20.9938 17.6003 20.9436 17.4497 20.9183 17.3071C20.8097 16.6949 20.995 16.0672 21.4188 15.6122C21.5176 15.5062 21.6415 15.4071 21.8894 15.2088L23.1303 14.216C23.9889 13.5291 24.4182 13.1857 24.5849 12.9421C25.3394 11.8393 24.8068 10.3211 23.5287 9.93132C23.2464 9.84523 22.6967 9.84523 21.5971 9.84523H20.7138C20.3865 9.84523 20.2228 9.84523 20.0759 9.82304C19.4447 9.72773 18.8983 9.33386 18.6082 8.76523C18.5407 8.63285 18.489 8.47758 18.3855 8.16705L18.0569 7.18134Z" fill="#FFE600"/>
</g>
<defs>
<filter id="filter0_d_1482_2777" x="-3.0333" y="-2.55545" width="40.8986" height="39.8962" filterUnits="userSpaceOnUse" color-interpolation-filters="sRGB">
<feFlood flood-opacity="0" result="BackgroundImageFix"/>
<feColorMatrix in="SourceAlpha" type="matrix" values="0 0 0 0 0 0 0 0 0 0 0 0 0 0 0 0 0 0 127 0" result="hardAlpha"/>
<feOffset dy="3.14484"/>
<feGaussianBlur stdDeviation="2.94829"/>
<feComposite in2="hardAlpha" operator="out"/>
<feColorMatrix type="matrix" values="0 0 0 0 0 0 0 0 0 0 0 0 0 0 0 0 0 0 0.25 0"/>
<feBlend mode="normal" in2="BackgroundImageFix" result="effect1_dropShadow_1482_2777"/>
<feBlend mode="normal" in="SourceGraphic" in2="effect1_dropShadow_1482_2777" result="shape"/>
</filter>
</defs>
</svg>
