<svg width="20" height="20" viewBox="0 0 20 20" fill="none" xmlns="http://www.w3.org/2000/svg">
<path opacity="0.22" d="M19.6734 18.0947L15.898 14.3303C17.1161 12.7785 17.7771 10.8621 17.7746 8.88926C17.7746 7.13229 17.2536 5.41478 16.2775 3.95391C15.3014 2.49304 13.914 1.35443 12.2907 0.682072C10.6675 0.00970838 8.88136 -0.166212 7.15815 0.176555C5.43494 0.519323 3.85207 1.36538 2.6097 2.60775C1.36734 3.85012 0.521276 5.43299 0.178508 7.1562C-0.164259 8.87941 0.0116615 10.6656 0.684025 12.2888C1.35639 13.912 2.495 15.2994 3.95586 16.2755C5.41673 17.2517 7.13424 17.7727 8.89121 17.7727C10.8641 17.7751 12.7804 17.1142 14.3323 15.896L18.0966 19.6715C18.1999 19.7756 18.3227 19.8582 18.458 19.9145C18.5933 19.9709 18.7384 19.9999 18.885 19.9999C19.0316 19.9999 19.1768 19.9709 19.3121 19.9145C19.4474 19.8582 19.5702 19.7756 19.6734 19.6715C19.7775 19.5683 19.8601 19.4454 19.9165 19.3101C19.9729 19.1748 20.0019 19.0297 20.0019 18.8831C20.0019 18.7365 19.9729 18.5914 19.9165 18.456C19.8601 18.3207 19.7775 18.1979 19.6734 18.0947ZM2.22867 8.88926C2.22867 7.57153 2.61942 6.2834 3.35151 5.18775C4.0836 4.0921 5.12415 3.23814 6.34157 2.73387C7.55899 2.2296 8.8986 2.09766 10.191 2.35473C11.4834 2.61181 12.6706 3.24635 13.6023 4.17813C14.5341 5.1099 15.1687 6.29705 15.4257 7.58946C15.6828 8.88187 15.5509 10.2215 15.0466 11.4389C14.5423 12.6563 13.6884 13.6969 12.5927 14.429C11.4971 15.1611 10.2089 15.5518 8.89121 15.5518C7.1242 15.5518 5.42955 14.8499 4.18008 13.6004C2.93061 12.3509 2.22867 10.6563 2.22867 8.88926Z" fill="black"/>
</svg>
