<svg width="18" height="36" viewBox="0 0 18 36" fill="none" xmlns="http://www.w3.org/2000/svg">
<path d="M7.4 1C3.8704 1 1 3.83702 1 7.32558V27.093C1 31.4529 4.5888 35 9 35C13.4112 35 17 31.4529 17 27.093V6.66456C17 6.45485 16.9157 6.25374 16.7657 6.10545C16.6157 5.95717 16.4122 5.87386 16.2 5.87386C15.9878 5.87386 15.7843 5.95717 15.6343 6.10545C15.4843 6.25374 15.4 6.45485 15.4 6.66456V27.093C15.4 30.5816 12.5296 33.4186 9 33.4186C5.4704 33.4186 2.6 30.5816 2.6 27.093V7.32558C2.6 4.70995 4.7536 2.5814 7.4 2.5814C10.0464 2.5814 12.2 4.70995 12.2 7.32558V20.0289C12.2 21.7732 10.7648 23.1917 9 23.1917C7.2352 23.1917 5.8 21.7732 5.8 20.0289V11.5953C5.8 11.3856 5.71572 11.1845 5.56569 11.0362C5.41566 10.888 5.21217 10.8047 5 10.8047C4.78783 10.8047 4.58434 10.888 4.43431 11.0362C4.28428 11.1845 4.2 11.3856 4.2 11.5953V20.0305C4.2 22.6461 6.3536 24.7747 9 24.7747C11.6464 24.7747 13.8 22.6461 13.8 20.0305V7.32558C13.8 3.83702 10.9296 1 7.4 1Z" fill="url(#paint0_linear_673_433)" fill-opacity="0.61"/>
<path d="M7.4 0.875C3.80275 0.875 0.875 3.76661 0.875 7.32558V27.093C0.875 31.5233 4.52115 35.125 9 35.125C13.4789 35.125 17.125 31.5233 17.125 27.093V6.66456C17.125 6.42122 17.0272 6.18816 16.8536 6.01655C16.68 5.84499 16.4449 5.74886 16.2 5.74886C15.9551 5.74886 15.72 5.84499 15.5464 6.01655C15.3728 6.18816 15.275 6.42122 15.275 6.66456V27.093C15.275 30.5112 12.4619 33.2936 9 33.2936C5.53805 33.2936 2.725 30.5112 2.725 27.093V7.32558C2.725 4.78036 4.82125 2.7064 7.4 2.7064C9.97875 2.7064 12.075 4.78036 12.075 7.32558V20.0289C12.075 21.7028 10.6971 23.0667 9 23.0667C7.30285 23.0667 5.925 21.7028 5.925 20.0289V11.5953C5.925 11.352 5.82719 11.1189 5.65356 10.9473C5.47998 10.7758 5.24486 10.6797 5 10.6797C4.75514 10.6797 4.52002 10.7758 4.34644 10.9473L4.43431 11.0362L4.34644 10.9473C4.17281 11.1189 4.075 11.352 4.075 11.5953V20.0305C4.075 22.7166 6.28595 24.8997 9 24.8997C11.7141 24.8997 13.925 22.7166 13.925 20.0305V7.32558C13.925 3.76661 10.9973 0.875 7.4 0.875Z" stroke="url(#paint1_linear_673_433)" stroke-opacity="0.61" stroke-width="0.25"/>
<defs>
<linearGradient id="paint0_linear_673_433" x1="9" y1="1" x2="9" y2="35" gradientUnits="userSpaceOnUse">
<stop stop-color="#00C1B6"/>
<stop offset="1" stop-color="#004B6C"/>
</linearGradient>
<linearGradient id="paint1_linear_673_433" x1="9" y1="1" x2="9" y2="35" gradientUnits="userSpaceOnUse">
<stop stop-color="#00C1B6"/>
<stop offset="1" stop-color="#004B6C"/>
</linearGradient>
</defs>
</svg>
