<svg width="32" height="32" viewBox="0 0 32 32" fill="none" xmlns="http://www.w3.org/2000/svg">
<path d="M16.0003 30.4137C15.0803 30.4137 14.2137 29.947 13.6003 29.1337L11.6003 26.467C11.5603 26.4137 11.4003 26.347 11.3337 26.3337H10.667C5.10699 26.3337 1.66699 24.827 1.66699 17.3337V10.667C1.66699 4.77366 4.77366 1.66699 10.667 1.66699H21.3337C27.227 1.66699 30.3337 4.77366 30.3337 10.667V17.3337C30.3337 23.227 27.227 26.3337 21.3337 26.3337H20.667C20.5603 26.3337 20.467 26.387 20.4003 26.467L18.4003 29.1337C17.787 29.947 16.9203 30.4137 16.0003 30.4137ZM10.667 3.66699C5.89366 3.66699 3.66699 5.89366 3.66699 10.667V17.3337C3.66699 23.3603 5.73366 24.3337 10.667 24.3337H11.3337C12.0137 24.3337 12.787 24.7203 13.2003 25.267L15.2003 27.9337C15.667 28.547 16.3337 28.547 16.8003 27.9337L18.8003 25.267C19.2403 24.6803 19.9337 24.3337 20.667 24.3337H21.3337C26.107 24.3337 28.3337 22.107 28.3337 17.3337V10.667C28.3337 5.89366 26.107 3.66699 21.3337 3.66699H10.667Z" fill="#292D32"/>
<path d="M22.6663 11.667H9.33301C8.78634 11.667 8.33301 11.2137 8.33301 10.667C8.33301 10.1203 8.78634 9.66699 9.33301 9.66699H22.6663C23.213 9.66699 23.6663 10.1203 23.6663 10.667C23.6663 11.2137 23.213 11.667 22.6663 11.667Z" fill="#292D32"/>
<path d="M17.333 18.333H9.33301C8.78634 18.333 8.33301 17.8797 8.33301 17.333C8.33301 16.7863 8.78634 16.333 9.33301 16.333H17.333C17.8797 16.333 18.333 16.7863 18.333 17.333C18.333 17.8797 17.8797 18.333 17.333 18.333Z" fill="#292D32"/>
</svg>
