<svg width="32" height="32" viewBox="0 0 32 32" fill="none" xmlns="http://www.w3.org/2000/svg">
<path d="M16 8.58691V13.0269" stroke="#292D32" stroke-width="1.5" stroke-miterlimit="10" stroke-linecap="round"/>
<path d="M16.0265 2.66699C11.1199 2.66699 7.14653 6.64033 7.14653 11.547V14.347C7.14653 15.2537 6.7732 16.6137 6.30653 17.387L4.6132 20.2137C3.5732 21.9603 4.2932 23.907 6.2132 24.547C12.5865 26.667 19.4799 26.667 25.8532 24.547C27.6532 23.947 28.4265 21.8403 27.4532 20.2137L25.7599 17.387C25.2932 16.6137 24.9199 15.2403 24.9199 14.347V11.547C24.9065 6.66699 20.9065 2.66699 16.0265 2.66699Z" stroke="#292D32" stroke-width="1.5" stroke-miterlimit="10" stroke-linecap="round"/>
<path d="M20.4396 25.0938C20.4396 27.5338 18.4396 29.5338 15.9996 29.5338C14.7862 29.5338 13.6662 29.0271 12.8662 28.2271C12.0662 27.4271 11.5596 26.3071 11.5596 25.0938" stroke="#292D32" stroke-width="1.5" stroke-miterlimit="10"/>
</svg>
