<svg width="32" height="32" viewBox="0 0 32 32" fill="none" xmlns="http://www.w3.org/2000/svg">
<path d="M5.87301 20.7018L11.913 26.7418C14.393 29.2218 18.4197 29.2218 20.913 26.7418L26.7663 20.8885C29.2463 18.4085 29.2463 14.3818 26.7663 11.8885L20.713 5.86182C19.4463 4.59516 17.6997 3.91516 15.913 4.00849L9.24634 4.32849C6.57967 4.44849 4.45967 6.56849 4.32634 9.22182L4.00634 15.8885C3.92634 17.6885 4.60634 19.4352 5.87301 20.7018Z" stroke="#292D32" stroke-width="1.5" stroke-linecap="round" stroke-linejoin="round"/>
<path d="M12.9798 16.3014C14.8208 16.3014 16.3132 14.809 16.3132 12.9681C16.3132 11.1271 14.8208 9.63477 12.9798 9.63477C11.1389 9.63477 9.64648 11.1271 9.64648 12.9681C9.64648 14.809 11.1389 16.3014 12.9798 16.3014Z" stroke="#292D32" stroke-width="1.5" stroke-linecap="round"/>
<path d="M17.6465 22.9681L22.9798 17.6348" stroke="#292D32" stroke-width="1.5" stroke-miterlimit="10" stroke-linecap="round" stroke-linejoin="round"/>
</svg>
