<svg width="27" height="24" viewBox="0 0 27 24" fill="none" xmlns="http://www.w3.org/2000/svg">
<path d="M5.4 24C4.81304 24 4.34348 23.8818 3.75652 23.7635C3.40435 23.6453 3.05217 23.4089 2.81739 23.1724L2.7 23.0542C2.58261 22.936 2.46522 22.6995 2.46522 22.5813C2.46522 22.3448 2.58261 22.2266 2.81739 22.1084C3.75652 21.6355 4.57826 20.8079 5.04783 19.8621C5.16522 19.7438 5.28261 19.6256 5.28261 19.5074C1.99565 17.4975 0 14.3054 0 10.8768C0 4.96552 6.10435 0 13.5 0C20.8957 0 27 4.96552 27 10.8768C27 16.7882 20.8957 21.7537 13.5 21.7537C12.7957 21.7537 11.9739 21.7537 11.2696 21.6355C9.5087 23.1724 7.39565 24 5.4 24Z" fill="#0D9CDB"/>
</svg>
