<svg width="48" height="48" viewBox="0 0 48 48" fill="none" xmlns="http://www.w3.org/2000/svg">
<path d="M42.1398 10.46C38.9198 10.14 35.6998 9.9 32.4598 9.72V9.7L32.0198 7.1C31.7198 5.26 31.2798 2.5 26.5998 2.5H21.3598C16.6998 2.5 16.2598 5.14 15.9398 7.08L15.5198 9.64C13.6598 9.76 11.7998 9.88 9.93983 10.06L5.85983 10.46C5.01983 10.54 4.41983 11.28 4.49983 12.1C4.57983 12.92 5.29983 13.52 6.13983 13.44L10.2198 13.04C20.6998 12 31.2598 12.4 41.8598 13.46C41.9198 13.46 41.9598 13.46 42.0198 13.46C42.7798 13.46 43.4398 12.88 43.5198 12.1C43.5798 11.28 42.9798 10.54 42.1398 10.46Z" fill="#FF0000"/>
<path d="M38.46 16.28C37.98 15.78 37.32 15.5 36.64 15.5H11.36C10.68 15.5 9.99999 15.78 9.53999 16.28C9.07999 16.78 8.81999 17.46 8.85999 18.16L10.1 38.68C10.32 41.72 10.6 45.52 17.58 45.52H30.42C37.4 45.52 37.68 41.74 37.9 38.68L39.14 18.18C39.18 17.46 38.92 16.78 38.46 16.28ZM27.32 35.5H20.66C19.84 35.5 19.16 34.82 19.16 34C19.16 33.18 19.84 32.5 20.66 32.5H27.32C28.14 32.5 28.82 33.18 28.82 34C28.82 34.82 28.14 35.5 27.32 35.5ZM29 27.5H19C18.18 27.5 17.5 26.82 17.5 26C17.5 25.18 18.18 24.5 19 24.5H29C29.82 24.5 30.5 25.18 30.5 26C30.5 26.82 29.82 27.5 29 27.5Z" fill="#FF0000"/>
</svg>
