<svg width="27" height="27" viewBox="0 0 27 27" fill="none" xmlns="http://www.w3.org/2000/svg">
<g opacity="0.53">
<circle cx="13.5" cy="13.5" r="13.5" fill="#0D9CDB"/>
<mask id="path-2-outside-1_402_3277" maskUnits="userSpaceOnUse" x="11" y="6" width="4" height="14" fill="black">
<rect fill="white" x="11" y="6" width="4" height="14"/>
<path d="M12.984 8.808C12.7067 8.808 12.472 8.712 12.28 8.52C12.088 8.328 11.992 8.09333 11.992 7.816C11.992 7.53867 12.088 7.304 12.28 7.112C12.472 6.92 12.7067 6.824 12.984 6.824C13.2507 6.824 13.4747 6.92 13.656 7.112C13.848 7.304 13.944 7.53867 13.944 7.816C13.944 8.09333 13.848 8.328 13.656 8.52C13.4747 8.712 13.2507 8.808 12.984 8.808ZM13.688 10.232V19H12.232V10.232H13.688Z"/>
</mask>
<path d="M12.984 8.808C12.7067 8.808 12.472 8.712 12.28 8.52C12.088 8.328 11.992 8.09333 11.992 7.816C11.992 7.53867 12.088 7.304 12.28 7.112C12.472 6.92 12.7067 6.824 12.984 6.824C13.2507 6.824 13.4747 6.92 13.656 7.112C13.848 7.304 13.944 7.53867 13.944 7.816C13.944 8.09333 13.848 8.328 13.656 8.52C13.4747 8.712 13.2507 8.808 12.984 8.808ZM13.688 10.232V19H12.232V10.232H13.688Z" fill="white"/>
<path d="M12.28 8.52L12.4568 8.34322L12.28 8.52ZM12.28 7.112L12.4568 7.28878L12.28 7.112ZM13.656 7.112L13.4742 7.28373L13.4792 7.28878L13.656 7.112ZM13.656 8.52L13.4792 8.34315L13.4742 8.34834L13.656 8.52ZM13.688 10.232H13.938V9.982H13.688V10.232ZM13.688 19V19.25H13.938V19H13.688ZM12.232 19H11.982V19.25H12.232V19ZM12.232 10.232V9.982H11.982V10.232H12.232ZM12.984 8.558C12.7714 8.558 12.6008 8.48723 12.4568 8.34322L12.1032 8.69678C12.3432 8.93677 12.642 9.058 12.984 9.058V8.558ZM12.4568 8.34322C12.3128 8.19922 12.242 8.02862 12.242 7.816H11.742C11.742 8.15805 11.8632 8.45678 12.1032 8.69678L12.4568 8.34322ZM12.242 7.816C12.242 7.60338 12.3128 7.43278 12.4568 7.28878L12.1032 6.93522C11.8632 7.17522 11.742 7.47395 11.742 7.816H12.242ZM12.4568 7.28878C12.6008 7.14477 12.7714 7.074 12.984 7.074V6.574C12.642 6.574 12.3432 6.69523 12.1032 6.93522L12.4568 7.28878ZM12.984 7.074C13.1826 7.074 13.3407 7.14221 13.4742 7.28366L13.8378 6.94034C13.6087 6.69779 13.3187 6.574 12.984 6.574V7.074ZM13.4792 7.28878C13.6232 7.43278 13.694 7.60338 13.694 7.816H14.194C14.194 7.47395 14.0728 7.17522 13.8328 6.93522L13.4792 7.28878ZM13.694 7.816C13.694 8.02862 13.6232 8.19922 13.4792 8.34322L13.8328 8.69678C14.0728 8.45678 14.194 8.15805 14.194 7.816H13.694ZM13.4742 8.34834C13.3407 8.48979 13.1826 8.558 12.984 8.558V9.058C13.3187 9.058 13.6087 8.93421 13.8378 8.69166L13.4742 8.34834ZM13.438 10.232V19H13.938V10.232H13.438ZM13.688 18.75H12.232V19.25H13.688V18.75ZM12.482 19V10.232H11.982V19H12.482ZM12.232 10.482H13.688V9.982H12.232V10.482Z" fill="white" mask="url(#path-2-outside-1_402_3277)"/>
</g>
</svg>
