<svg width="18" height="18" viewBox="0 0 18 18" fill="none" xmlns="http://www.w3.org/2000/svg">
<path fill-rule="evenodd" clip-rule="evenodd" d="M17.5861 9.2345C17.5861 8.60138 17.5292 7.99262 17.4237 7.4082H9.01465V10.8619H13.8198C13.6129 11.978 12.9838 12.9236 12.0382 13.5567V15.797H14.9237C16.612 14.2426 17.5861 11.9536 17.5861 9.2345Z" fill="#4285F4"/>
<path fill-rule="evenodd" clip-rule="evenodd" d="M9.01501 17.9606C11.4257 17.9606 13.4468 17.1611 14.9241 15.7975L12.0385 13.5572C11.239 14.093 10.2163 14.4095 9.01501 14.4095C6.68953 14.4095 4.72119 12.8389 4.01908 10.7285H1.03613V13.0418C2.50529 15.9598 5.52476 17.9606 9.01501 17.9606Z" fill="#34A853"/>
<path fill-rule="evenodd" clip-rule="evenodd" d="M4.01954 10.7296C3.84096 10.1939 3.7395 9.62164 3.7395 9.03317C3.7395 8.4447 3.84096 7.87246 4.01954 7.33674V5.02344H1.03659C0.431881 6.22879 0.0869141 7.59243 0.0869141 9.03317C0.0869141 10.4739 0.431881 11.8375 1.03659 13.0429L4.01954 10.7296Z" fill="#FBBC05"/>
<path fill-rule="evenodd" clip-rule="evenodd" d="M9.01501 3.65464C10.3259 3.65464 11.5028 4.10513 12.4282 4.98987L14.989 2.429C13.4428 0.988254 11.4217 0.103516 9.01501 0.103516C5.52476 0.103516 2.50529 2.10432 1.03613 5.02234L4.01908 7.33564C4.72119 5.22526 6.68953 3.65464 9.01501 3.65464Z" fill="#EA4335"/>
</svg>
