<svg width="26" height="26" viewBox="0 0 26 26" fill="none" xmlns="http://www.w3.org/2000/svg">
<path d="M6.59951 21.1498C7.56601 21.1498 8.34951 20.3663 8.34951 19.3998C8.34951 18.4333 7.56601 17.6498 6.59951 17.6498C5.63301 17.6498 4.84951 18.4333 4.84951 19.3998C4.84951 20.3663 5.63301 21.1498 6.59951 21.1498Z" fill="black" stroke="black" stroke-width="0.3"/>
<path d="M20.2 0.85H20.1379L20.0939 0.89393L10.2459 10.7412C9.17331 10.4304 8.04362 10.3679 6.94263 10.5591C5.81201 10.7554 4.74307 11.2137 3.82138 11.8973C2.8997 12.581 2.15089 13.4709 1.63491 14.4959C1.11893 15.5209 0.850119 16.6524 0.85 17.8C0.85 19.7493 1.62437 21.6188 3.00277 22.9972C4.38116 24.3756 6.25066 25.15 8.2 25.15C9.34759 25.1498 10.4792 24.8809 11.5041 24.3648C12.5291 23.8487 13.419 23.0998 14.1025 22.178C14.7861 21.2563 15.2443 20.1873 15.4405 19.0566C15.6315 17.9556 15.5689 16.8259 15.258 15.7534L17.106 13.9061L17.15 13.8622V13.8V12.35H18.6H18.6621L18.7061 12.3061L25.1061 5.90607L25.15 5.86213V5.8V1V0.85H25H20.2ZM15.4 10.45H15.25V10.6V13.0746L13.8516 14.4723L13.8515 14.4723L13.1731 15.1507L13.1096 15.2143L13.1357 15.3003L13.4141 16.2179L13.4141 16.218C13.5706 16.7336 13.65 17.2653 13.65 17.8C13.65 20.8051 11.2044 23.25 8.2 23.25C5.19563 23.25 2.75 20.8051 2.75 17.8C2.75 14.7949 5.19563 12.35 8.2 12.35C8.73392 12.35 9.26649 12.4294 9.78136 12.5852L10.698 12.8635L10.7841 12.8897L10.8477 12.8261L11.5261 12.1477L20.9245 2.75H23.25V5.07468L17.8755 10.45H15.4Z" fill="black" stroke="black" stroke-width="0.3"/>
<path d="M16.6117 8.6119L16.5056 8.71797L16.6117 8.82404L17.1773 9.38964L17.2834 9.4957L17.3894 9.38964L22.1894 4.58964L22.2955 4.48357L22.1894 4.3775L21.6238 3.8119L21.5178 3.70584L21.4117 3.8119L16.6117 8.6119Z" fill="black" stroke="black" stroke-width="0.3"/>
</svg>
