<svg width="46" height="46" viewBox="0 0 46 46" fill="none" xmlns="http://www.w3.org/2000/svg">
<g clip-path="url(#clip0_309_3241)">
<path d="M23.0007 3.8335C12.4207 3.8335 3.83398 12.4202 3.83398 23.0002C3.83398 33.5802 12.4207 42.1668 23.0007 42.1668C33.5807 42.1668 42.1673 33.5802 42.1673 23.0002C42.1673 12.4202 33.5807 3.8335 23.0007 3.8335ZM24.9173 36.4168H21.084V32.5835H24.9173V36.4168ZM28.8848 21.5627L27.1598 23.326C26.2015 24.3035 25.5115 25.1852 25.1665 26.5652C25.0132 27.1785 24.9173 27.8685 24.9173 28.7502H21.084V27.7918C21.084 26.9102 21.2373 26.0668 21.5057 25.281C21.889 24.1693 22.5215 23.1727 23.3265 22.3677L25.7031 19.9527C26.5848 19.1093 27.0065 17.8443 26.7573 16.5027C26.5082 15.1227 25.4348 13.9535 24.0931 13.5702C21.9657 12.976 19.9915 14.1835 19.359 16.0043C19.129 16.7135 18.5348 17.2502 17.7873 17.2502H17.2123C16.1006 17.2502 15.334 16.1768 15.6407 15.1035C16.4648 12.286 18.8607 10.1393 21.8315 9.67933C24.7448 9.21933 27.524 10.7335 29.249 13.1293C31.5107 16.2535 30.8398 19.6077 28.8848 21.5627Z" fill="white"/>
</g>
<defs>
<clipPath id="clip0_309_3241">
<rect width="46" height="46" fill="white"/>
</clipPath>
</defs>
</svg>
