<svg width="23" height="23" viewBox="0 0 23 23" fill="none" xmlns="http://www.w3.org/2000/svg">
<path d="M5.48327 10.9665H12.4095C12.9444 10.9635 13.4564 10.7497 13.8346 10.3715C14.2128 9.99331 14.4266 9.48123 14.4297 8.94639V5.48327C14.4266 4.94843 14.2128 4.43635 13.8346 4.05816C13.4564 3.67996 12.9444 3.46615 12.4095 3.46312H5.48327C4.94843 3.46615 4.43635 3.67996 4.05816 4.05816C3.67996 4.43635 3.46615 4.94843 3.46312 5.48327V8.94639C3.46615 9.48123 3.67996 9.99331 4.05816 10.3715C4.43635 10.7497 4.94843 10.9635 5.48327 10.9665ZM5.19468 5.48327C5.19468 5.40673 5.22508 5.33333 5.2792 5.2792C5.33333 5.22508 5.40673 5.19468 5.48327 5.19468H12.4095C12.486 5.19468 12.5595 5.22508 12.6136 5.2792C12.6677 5.33333 12.6981 5.40673 12.6981 5.48327V8.94639C12.6981 9.02293 12.6677 9.09633 12.6136 9.15046C12.5595 9.20458 12.486 9.23498 12.4095 9.23498H5.48327C5.40673 9.23498 5.33333 9.20458 5.2792 9.15046C5.22508 9.09633 5.19468 9.02293 5.19468 8.94639V5.48327ZM17.8928 10.5856V2.02015C17.8897 1.48531 17.6759 0.973235 17.2977 0.595037C16.9195 0.21684 16.4075 0.00303034 15.8726 0H2.02015C1.48531 0.00303034 0.973235 0.21684 0.595037 0.595037C0.21684 0.973235 0.00303034 1.48531 0 2.02015V20.4901C0.00303034 21.025 0.21684 21.537 0.595037 21.9152C0.973235 22.2934 1.48531 22.5072 2.02015 22.5103H16.4498C17.9293 22.5117 19.358 21.971 20.4657 20.9902C21.5734 20.0095 22.2832 18.6568 22.4609 17.188C22.6387 15.7193 22.272 14.2363 21.4302 13.0197C20.5884 11.803 19.3299 10.9371 17.8928 10.5856ZM2.02015 20.7787C1.94361 20.7787 1.87021 20.7483 1.81609 20.6942C1.76196 20.6401 1.73156 20.5667 1.73156 20.4901V2.02015C1.73156 1.94361 1.76196 1.87021 1.81609 1.81609C1.87021 1.76196 1.94361 1.73156 2.02015 1.73156H15.8726C15.9492 1.73156 16.0226 1.76196 16.0767 1.81609C16.1308 1.87021 16.1612 1.94361 16.1612 2.02015V10.424C15.0677 10.478 14.0095 10.8289 13.1003 11.439C12.1912 12.0492 11.4655 12.8955 11.0012 13.8871H4.3289C4.09928 13.8871 3.87906 13.9783 3.7167 14.1407C3.55433 14.3031 3.46312 14.5233 3.46312 14.7529C3.46312 14.9825 3.55433 15.2027 3.7167 15.3651C3.87906 15.5274 4.09928 15.6187 4.3289 15.6187H10.4817C10.4275 15.9043 10.3966 16.1938 10.3894 16.4844C10.3966 16.7751 10.4275 17.0646 10.4817 17.3502H4.3289C4.09928 17.3502 3.87906 17.4414 3.7167 17.6038C3.55433 17.7662 3.46312 17.9864 3.46312 18.216C3.46312 18.4456 3.55433 18.6658 3.7167 18.8282C3.87906 18.9906 4.09928 19.0818 4.3289 19.0818H11.0012C11.3011 19.7281 11.7157 20.3148 12.2248 20.8133L2.02015 20.7787ZM16.4498 20.7787C15.5936 20.7787 14.7567 20.5248 14.0448 20.0492C13.3329 19.5735 12.7781 18.8974 12.4504 18.1064C12.1228 17.3154 12.0371 16.445 12.2041 15.6053C12.3711 14.7656 12.7834 13.9942 13.3888 13.3888C13.9942 12.7834 14.7656 12.3711 15.6053 12.2041C16.445 12.0371 17.3154 12.1228 18.1064 12.4504C18.8974 12.7781 19.5735 13.3329 20.0492 14.0448C20.5248 14.7567 20.7787 15.5936 20.7787 16.4498C20.7787 17.5979 20.3226 18.699 19.5108 19.5108C18.699 20.3226 17.5979 20.7787 16.4498 20.7787ZM19.0702 18.1814C19.0702 18.411 18.979 18.6312 18.8167 18.7936C18.6543 18.9559 18.4341 19.0472 18.2045 19.0472C17.9748 19.0472 17.7546 18.9559 17.5923 18.7936C17.4299 18.6312 17.3387 18.411 17.3387 18.1814C17.3387 17.9537 17.4283 17.7353 17.5882 17.5732C17.748 17.4112 17.9653 17.3186 18.1929 17.3156C18.4236 17.3156 18.645 17.4064 18.8092 17.5685C18.9734 17.7305 19.0672 17.9507 19.0702 18.1814ZM13.8756 14.7183C13.8755 14.4906 13.9652 14.2721 14.125 14.1101C14.2849 13.9481 14.5022 13.8555 14.7298 13.8525C14.901 13.8525 15.0684 13.9033 15.2108 13.9984C15.3532 14.0935 15.4641 14.2287 15.5297 14.3869C15.5952 14.5451 15.6123 14.7192 15.5789 14.8872C15.5455 15.0551 15.4631 15.2094 15.342 15.3305C15.2209 15.4515 15.0666 15.534 14.8987 15.5674C14.7308 15.6008 14.5567 15.5837 14.3985 15.5181C14.2403 15.4526 14.1051 15.3416 14.0099 15.1993C13.9148 15.0569 13.864 14.8895 13.864 14.7183H13.8756ZM18.7932 15.3301L15.3301 18.7932C15.1677 18.9553 14.9477 19.0464 14.7183 19.0464C14.4888 19.0464 14.2688 18.9553 14.1064 18.7932C13.9443 18.6309 13.8532 18.4108 13.8532 18.1814C13.8532 17.9519 13.9443 17.7319 14.1064 17.5696L17.5696 14.1064C17.7337 13.9535 17.9508 13.8702 18.175 13.8742C18.3993 13.8782 18.6133 13.969 18.772 14.1277C18.9306 14.2863 19.0215 14.5003 19.0254 14.7246C19.0294 14.9489 18.9461 15.1659 18.7932 15.3301Z" fill="black"/>
</svg>
