<svg width="42" height="39" viewBox="0 0 42 39" fill="none" xmlns="http://www.w3.org/2000/svg">
<path fill-rule="evenodd" clip-rule="evenodd" d="M35.0445 21.0833H29.007C25.672 21.0833 22.9695 23.6574 22.9695 26.8333V32.5833C22.9695 35.7593 25.672 38.3333 29.007 38.3333H35.0445C38.3795 38.3333 41.082 35.7593 41.082 32.5833V26.8333C41.082 23.6574 38.3795 21.0833 35.0445 21.0833ZM12.907 21.0833H6.86953C3.53453 21.0833 0.832031 23.6574 0.832031 26.8333V32.5833C0.832031 35.7593 3.53453 38.3333 6.86953 38.3333H12.907C16.242 38.3333 18.9445 35.7593 18.9445 32.5833V26.8333C18.9445 23.6574 16.242 21.0833 12.907 21.0833ZM35.0445 0H29.007C25.672 0 22.9695 2.57408 22.9695 5.75V11.5C22.9695 14.6759 25.672 17.25 29.007 17.25H35.0445C38.3795 17.25 41.082 14.6759 41.082 11.5V5.75C41.082 2.57408 38.3795 0 35.0445 0ZM18.9445 5.75V11.5C18.9445 14.6759 16.242 17.25 12.907 17.25H6.86953C3.53453 17.25 0.832031 14.6759 0.832031 11.5V5.75C0.832031 2.57408 3.53453 0 6.86953 0H12.907C16.242 0 18.9445 2.57408 18.9445 5.75Z" fill="white"/>
</svg>
