<svg width="26" height="26" viewBox="0 0 26 26" fill="none" xmlns="http://www.w3.org/2000/svg">
<path d="M25.5672 23.5172L20.6587 18.6232C22.2424 16.6056 23.1017 14.1141 23.0985 11.5493C23.0985 9.26503 22.4212 7.0321 21.1521 5.13284C19.8831 3.23357 18.0793 1.75328 15.969 0.87914C13.8586 0.00500407 11.5364 -0.22371 9.29611 0.221921C7.05578 0.667551 4.9979 1.76751 3.3827 3.3827C1.76751 4.9979 0.667551 7.05578 0.221921 9.29611C-0.22371 11.5364 0.00500407 13.8586 0.87914 15.969C1.75328 18.0793 3.23357 19.8831 5.13284 21.1521C7.0321 22.4212 9.26503 23.0985 11.5493 23.0985C14.1141 23.1017 16.6056 22.2424 18.6232 20.6587L23.5172 25.5672C23.6514 25.7025 23.8111 25.8099 23.987 25.8832C24.1629 25.9565 24.3516 25.9942 24.5422 25.9942C24.7328 25.9942 24.9214 25.9565 25.0974 25.8832C25.2733 25.8099 25.433 25.7025 25.5672 25.5672C25.7025 25.433 25.8099 25.2733 25.8832 25.0974C25.9565 24.9214 25.9942 24.7328 25.9942 24.5422C25.9942 24.3516 25.9565 24.1629 25.8832 23.987C25.8099 23.8111 25.7025 23.6514 25.5672 23.5172ZM2.88732 11.5493C2.88732 9.83609 3.39533 8.16139 4.34712 6.73694C5.29891 5.31249 6.65172 4.20227 8.23448 3.54667C9.81724 2.89107 11.5589 2.71953 13.2391 3.05376C14.9194 3.38798 16.4628 4.21295 17.6742 5.42434C18.8856 6.63574 19.7105 8.17915 20.0448 9.8594C20.379 11.5397 20.2075 13.2813 19.5519 14.864C18.8962 16.4468 17.786 17.7996 16.3616 18.7514C14.9371 19.7032 13.2624 20.2112 11.5493 20.2112C9.25197 20.2112 7.04877 19.2986 5.42434 17.6742C3.79991 16.0497 2.88732 13.8465 2.88732 11.5493Z" fill="black"/>
</svg>
