<svg width="28" height="28" viewBox="0 0 28 28" fill="none" xmlns="http://www.w3.org/2000/svg">
<g clip-path="url(#clip0_472_814)">
<path d="M14 14.875C10.1404 14.875 7 11.7346 7 7.875C7 4.01538 10.1404 0.875 14 0.875C17.8596 0.875 21 4.01538 21 7.875C21 11.7346 17.8596 14.875 14 14.875ZM14 2.625C11.1046 2.625 8.75 4.97962 8.75 7.875C8.75 10.7704 11.1046 13.125 14 13.125C16.8954 13.125 19.25 10.7704 19.25 7.875C19.25 4.97962 16.8954 2.625 14 2.625Z" fill="black"/>
<path d="M14.35 11.5502H13.65C13.1596 11.5483 12.6827 11.3887 12.2899 11.095C11.8971 10.8013 11.6092 10.3891 11.4686 9.9192C11.4332 9.80815 11.4202 9.69113 11.4306 9.57502C11.441 9.45891 11.4745 9.34605 11.5291 9.24306C11.5837 9.14007 11.6584 9.04903 11.7487 8.97529C11.839 8.90156 11.9431 8.8466 12.0549 8.81366C12.1667 8.78072 12.284 8.77046 12.3998 8.78347C12.5157 8.79649 12.6278 8.83252 12.7295 8.88946C12.8312 8.94639 12.9205 9.02308 12.9922 9.11501C13.0639 9.20695 13.1165 9.31228 13.1469 9.42482C13.2125 9.64619 13.4199 9.80107 13.65 9.80107H14.35C14.4894 9.80107 14.623 9.74571 14.7215 9.64717C14.8201 9.54863 14.8754 9.41499 14.8754 9.27563C14.8754 9.13628 14.8201 9.00263 14.7215 8.90409C14.623 8.80555 14.4894 8.7502 14.35 8.7502H13.65C12.3953 8.7502 11.375 7.72907 11.375 6.4752C11.375 5.22132 12.3953 4.2002 13.65 4.2002H14.35C15.3309 4.2002 16.1971 4.82495 16.5077 5.75595C16.5459 5.86537 16.5619 5.98129 16.5549 6.09695C16.5478 6.21262 16.5179 6.32574 16.4668 6.42975C16.4157 6.53375 16.3444 6.62657 16.2572 6.70282C16.1699 6.77906 16.0684 6.83721 15.9584 6.87389C15.8485 6.91057 15.7324 6.92505 15.6168 6.91649C15.5013 6.90793 15.3886 6.8765 15.2852 6.82402C15.1819 6.77154 15.0901 6.69906 15.015 6.61079C14.9399 6.52252 14.8831 6.42022 14.8479 6.30982C14.8134 6.20505 14.7467 6.11386 14.6573 6.04928C14.5678 5.98469 14.4603 5.95001 14.35 5.9502H13.65C13.5108 5.9502 13.3772 6.00551 13.2788 6.10396C13.1803 6.20242 13.125 6.33596 13.125 6.4752C13.125 6.61443 13.1803 6.74797 13.2788 6.84643C13.3772 6.94488 13.5108 7.0002 13.65 7.0002H14.35C15.6047 7.0002 16.625 8.02132 16.625 9.2752C16.625 10.5291 15.6047 11.5502 14.35 11.5502Z" fill="black"/>
<path d="M14 5.2498C13.7629 5.2498 13.5441 5.15355 13.3787 4.99605C13.3438 4.9523 13.3 4.90855 13.2738 4.85605C13.2391 4.81142 13.2124 4.76109 13.195 4.7073C13.1698 4.6576 13.1519 4.60457 13.1416 4.5498C13.1337 4.48855 13.125 4.43605 13.125 4.3748C13.125 4.1473 13.2204 3.9198 13.3787 3.75355C13.7025 3.4298 14.2887 3.4298 14.6212 3.75355C14.7787 3.9198 14.875 4.1473 14.875 4.3748C14.875 4.43605 14.8663 4.48855 14.8566 4.5498C14.8475 4.60474 14.8298 4.65789 14.8041 4.7073C14.7864 4.76094 14.7597 4.81122 14.7254 4.85605C14.6904 4.90855 14.6554 4.9523 14.6204 4.99605C14.455 5.15355 14.2275 5.2498 14 5.2498ZM14 12.2498C13.7629 12.2498 13.5441 12.1536 13.3787 11.9961C13.3438 11.9523 13.3 11.9086 13.2738 11.8561C13.2391 11.8114 13.2124 11.7611 13.195 11.7073C13.1698 11.6576 13.1519 11.6046 13.1416 11.5498C13.1337 11.4886 13.125 11.4361 13.125 11.3748C13.125 11.1473 13.2204 10.9198 13.3787 10.7536C13.7025 10.4298 14.2887 10.4298 14.6212 10.7536C14.7787 10.9198 14.875 11.1473 14.875 11.3748C14.875 11.4361 14.8663 11.4886 14.8566 11.5498C14.8475 11.6047 14.8298 11.6579 14.8041 11.7073C14.7864 11.7609 14.7597 11.8112 14.7254 11.8561C14.6904 11.9086 14.6554 11.9523 14.6204 11.9961C14.455 12.1536 14.2275 12.2498 14 12.2498ZM15.75 27.1248H1.75C1.51794 27.1248 1.29538 27.0326 1.13128 26.8685C0.967187 26.7044 0.875 26.4819 0.875 26.2498V18.3748C0.875 18.1429 0.966875 17.9198 1.13137 17.7562C1.33612 17.5506 3.19638 15.7498 5.25 15.7498C6.951 15.7498 9.1455 17.0352 9.88313 17.4998H14C14.383 17.5004 14.7612 17.5846 15.1082 17.7467C15.4553 17.9088 15.7627 18.1447 16.009 18.438C16.2553 18.7313 16.4345 19.0749 16.5341 19.4447C16.6337 19.8145 16.6513 20.2016 16.5856 20.5789L23.4902 17.7019C23.8891 17.5353 24.3229 17.4699 24.7531 17.5116C25.1833 17.5533 25.5966 17.7007 25.956 17.9408C26.316 18.1801 26.6111 18.5048 26.8151 18.8858C27.019 19.2669 27.1255 19.6926 27.125 20.1248C27.125 20.2778 27.085 20.428 27.0088 20.5607C26.9327 20.6933 26.8231 20.8037 26.691 20.8808L16.191 27.0058C16.0571 27.0837 15.9049 27.1248 15.75 27.1248ZM2.625 25.3748H15.5129L25.2604 19.6891C25.1924 19.5719 25.0984 19.4719 24.9856 19.3968C24.8663 19.3158 24.7285 19.266 24.585 19.2521C24.4414 19.2382 24.2967 19.2606 24.164 19.3172L16.0877 22.6824C15.9807 22.7269 15.8659 22.7498 15.75 22.7498H8.75C8.51794 22.7498 8.29538 22.6576 8.13128 22.4935C7.96719 22.3294 7.875 22.1069 7.875 21.8748C7.875 21.6427 7.96719 21.4202 8.13128 21.2561C8.29538 21.092 8.51794 20.9998 8.75 20.9998H14C14.2253 20.9897 14.438 20.8931 14.5939 20.7301C14.7497 20.5672 14.8367 20.3503 14.8367 20.1248C14.8367 19.8993 14.7497 19.6825 14.5939 19.5195C14.438 19.3565 14.2253 19.2599 14 19.2498H9.625C9.45263 19.2498 9.28288 19.1982 9.13937 19.1037C8.47 18.6574 6.46362 17.4998 5.25 17.4998C4.29625 17.4998 3.19637 18.2698 2.625 18.7589V25.3748Z" fill="black"/>
</g>
<defs>
<clipPath id="clip0_472_814">
<rect width="28" height="28" fill="white"/>
</clipPath>
</defs>
</svg>
