<svg width="24" height="30" viewBox="0 0 24 30" fill="none" xmlns="http://www.w3.org/2000/svg">
<path d="M22.5901 20.17C22.2145 19.7966 22.0023 19.2896 22.0001 18.76V13C21.9984 10.7596 21.2444 8.58467 19.859 6.82396C18.4737 5.06324 16.5372 3.81873 14.3601 3.29C14.4495 3.03606 14.4968 2.7692 14.5001 2.5C14.5001 1.83696 14.2367 1.20107 13.7678 0.732233C13.299 0.263392 12.6631 0 12.0001 0C11.337 0 10.7011 0.263392 10.2323 0.732233C9.76346 1.20107 9.50007 1.83696 9.50007 2.5C9.50337 2.7692 9.55066 3.03606 9.64007 3.29C7.46296 3.81873 5.52646 5.06324 4.1411 6.82396C2.75573 8.58467 2.00176 10.7596 2.00007 13V18.76C1.99784 19.2896 1.78566 19.7966 1.41007 20.17C0.960063 20.6181 0.603661 21.1513 0.361597 21.7384C0.119533 22.3255 -0.00335907 22.9549 6.98239e-05 23.59V24C6.98239e-05 24.5304 0.210783 25.0391 0.585856 25.4142C0.960929 25.7893 1.46964 26 2.00007 26H9.18007C9.06365 26.3207 9.00277 26.6589 9.00007 27C9.00007 27.7956 9.31614 28.5587 9.87875 29.1213C10.4414 29.6839 11.2044 30 12.0001 30C12.7957 30 13.5588 29.6839 14.1214 29.1213C14.684 28.5587 15.0001 27.7956 15.0001 27C14.9974 26.6589 14.9365 26.3207 14.8201 26H22.0001C22.5305 26 23.0392 25.7893 23.4143 25.4142C23.7894 25.0391 24.0001 24.5304 24.0001 24V23.59C24.0035 22.9549 23.8806 22.3255 23.6385 21.7384C23.3965 21.1513 23.0401 20.6181 22.5901 20.17ZM11.5001 2.5C11.5001 2.40111 11.5294 2.30444 11.5843 2.22221C11.6393 2.13999 11.7174 2.0759 11.8087 2.03806C11.9001 2.00022 12.0006 1.99031 12.0976 2.00961C12.1946 2.0289 12.2837 2.07652 12.3536 2.14645C12.4235 2.21637 12.4712 2.30546 12.4905 2.40245C12.5098 2.49945 12.4999 2.59998 12.462 2.69134C12.4242 2.7827 12.3601 2.86079 12.2779 2.91573C12.1956 2.97068 12.099 3 12.0001 3C11.8675 3 11.7403 2.94732 11.6465 2.85355C11.5527 2.75979 11.5001 2.63261 11.5001 2.5Z" fill="#0D9CDB"/>
</svg>
