<svg width="512" height="512" viewBox="0 0 512 512" fill="none" xmlns="http://www.w3.org/2000/svg">
<g clip-path="url(#clip0_1950_3590)">
<path d="M180.353 72.3579L152.785 99.9259C145.03 107.681 132.457 107.681 124.702 99.9259C116.947 92.1709 116.947 79.5979 124.702 71.8429L152.27 44.2749C156.145 40.3999 162.426 40.3999 166.301 44.2749L180.353 58.3269C184.228 62.2009 184.228 68.4829 180.353 72.3579ZM257.081 89.2999L229.513 116.868C221.758 124.623 209.185 124.623 201.43 116.868C193.675 109.113 193.675 96.5399 201.43 88.7849L228.998 61.2169C232.873 57.3419 239.154 57.3419 243.029 61.2169L257.081 75.2689C260.956 79.1429 260.956 85.4249 257.081 89.2999ZM438.945 330.95L411.377 358.518C403.622 366.273 403.622 378.846 411.377 386.601C419.132 394.356 431.705 394.356 439.46 386.601L467.028 359.033C470.903 355.158 470.903 348.877 467.028 345.002L452.976 330.95C449.101 327.075 442.819 327.075 438.945 330.95ZM422.003 254.221L394.435 281.789C386.68 289.544 386.68 302.117 394.435 309.872C402.19 317.627 414.763 317.627 422.518 309.872L450.086 282.304C453.961 278.429 453.961 272.148 450.086 268.273L436.034 254.221C432.16 250.347 425.878 250.347 422.003 254.221Z" fill="#8C8C8C"/>
<path d="M55.3739 74.815L373.41 123.867L256.473 240.804L10.2869 106.216C4.40192 102.999 3.25892 95.031 8.00093 90.289C20.4099 77.88 38.0019 72.114 55.3739 74.815ZM421.003 503.29C416.26 508.033 408.293 506.889 405.076 501.005L270.452 254.782L387.389 137.845L436.477 455.917C439.141 473.253 433.411 490.882 421.003 503.29ZM187.194 479.493L181.056 485.631C177.04 489.647 170.266 488.521 167.765 483.422L121.728 389.571L27.8539 343.511C22.7559 341.01 21.6309 334.236 25.6459 330.221L31.7849 324.082C40.3669 315.5 52.2769 311.105 64.3769 312.057L187.542 321.741L189.245 320.038L189.402 321.898L191.24 322.032L189.537 323.735L199.22 446.901C200.171 459.001 195.777 470.911 187.194 479.493Z" fill="#0E99D7"/>
<path d="M212.403 357.491C189.883 377.907 150.419 405.09 127.328 411.897L116.206 415.2C111.864 416.489 105.958 414.321 101.469 409.832C96.9801 405.343 94.8121 399.437 96.1011 395.095L99.4041 383.973C106.211 360.882 133.395 321.418 153.81 298.898L382.827 50.9591C413.047 17.4671 469.544 -10.9509 495.899 15.4051C522.254 41.7611 493.835 98.2572 460.343 128.477L212.403 357.491Z" fill="#F2F2F2"/>
<path d="M456.589 327.53C450.64 321.592 440.971 321.589 435.033 327.527L423.595 338.934L420.437 318.203C422.538 317.064 424.497 315.659 426.189 313.966L453.816 286.446C459.728 280.534 459.849 270.918 453.824 264.893L439.82 250.835C433.926 244.858 424.252 244.813 418.238 250.749L411.225 257.736L401.043 190.894L464.146 132.828C486.561 112.68 511.082 76.553 511.957 44.844C512.702 17.672 494.636 -0.481012 467.421 0.140988C435.712 0.892988 399.494 25.279 379.302 47.575L320.99 110.467L254.191 100.03L261.182 93.063C267.115 87.135 267.149 77.469 261.19 71.51L247.186 57.452C241.295 51.477 231.623 51.438 225.604 57.366L197.982 84.884C196.259 86.606 194.866 88.526 193.741 90.587L173.072 87.358L184.457 76.005C190.416 70.046 190.442 60.372 184.527 54.457L170.461 40.287C164.473 34.377 154.786 34.396 148.882 40.305L121.255 67.825C118.332 70.749 116.271 74.369 115.073 78.298L56.5039 69.147C37.7439 66.317 18.0029 72.667 4.54089 86.059C-2.69211 93.303 -1.02911 105.443 7.98489 110.445L215.393 224.358L149.786 295.118C145.24 300.115 140.418 305.887 135.579 312.063L64.7179 306.364C50.9749 305.268 37.5879 310.217 27.9139 319.891L21.7129 326.04C15.1559 332.591 16.9549 343.733 25.3109 347.867L94.1669 381.818C94.1339 381.925 94.0869 382.044 94.0549 382.151L90.7299 393.267C89.2769 398.129 90.5789 403.972 94.0139 409.129L84.7789 418.329C82.6909 420.406 82.6859 423.783 84.7629 425.868C86.8379 427.954 90.2169 427.963 92.3019 425.884L101.542 416.678C106.166 419.789 112.051 421.636 117.412 420.047C120.458 419.146 127.08 417.206 128.899 416.647L162.55 485.558C166.626 494.059 177.771 495.811 184.405 489.263L190.536 483.132C200.234 473.434 205.209 460.043 204.186 446.378L198.738 375.547C204.952 370.718 210.76 365.905 215.787 361.365C215.797 361.355 215.81 361.342 215.823 361.331L286.805 296.014L399.928 503.812C404.877 512.967 417.269 514.553 424.332 507.392C437.901 493.823 444.261 474.412 441.348 455.475L432.427 396.911C436.394 395.736 440.046 393.68 442.986 390.742L470.61 363.224C476.569 357.265 476.569 347.567 470.618 341.616L456.589 327.53ZM425.747 258.322C427.559 256.536 430.467 256.539 432.248 258.34L446.278 272.424C448.095 274.241 448.095 277.089 446.286 278.899L418.656 306.422C418.652 306.426 418.648 306.427 418.645 306.431L413.219 270.808L425.747 258.322ZM233.11 64.94C234.919 63.157 237.83 63.154 239.613 64.958L253.643 79.042C255.457 80.862 255.392 83.778 253.648 85.517L241.129 97.99L205.518 92.427L233.11 64.94ZM128.787 75.372L156.414 47.852C158.208 46.069 161.15 46.074 162.933 47.839L176.973 61.983C178.757 63.767 178.697 66.682 176.924 68.46L160.018 85.319L125.727 79.961C126.441 78.263 127.453 76.706 128.787 75.372ZM13.1399 101.109C10.3589 99.567 9.85889 95.828 12.0729 93.609C23.1679 82.573 39.5949 77.4 54.8899 79.686L312.251 119.893L222.866 216.299L13.1399 101.109ZM30.0329 338.305C28.2459 337.423 27.8319 335 29.2359 333.595L35.4369 327.446C42.9169 319.967 53.2779 316.158 63.8679 316.993L127.941 322.145C115.807 338.73 104.437 356.983 97.9499 371.791L30.0329 338.305ZM193.554 447.186C194.343 457.74 190.495 468.094 182.997 475.594L176.892 481.699C175.489 483.084 173.067 482.832 172.149 480.915L138.936 412.9C153.762 406.471 172.03 395.188 188.641 383.134L193.554 447.186ZM208.622 353.467C154.842 402.029 115.099 409.47 114.395 409.822C113.233 410.166 111.38 409.822 109.376 408.876L140.822 377.548C142.91 375.471 142.915 372.094 140.838 370.009C138.761 367.921 135.381 367.916 133.299 369.993L101.857 401.317C100.93 399.327 100.599 397.487 100.947 396.321C101.217 395.788 108.874 355.927 157.641 302.329L387.165 54.779C406.513 33.416 440.381 11.451 467.677 10.803C488.594 10.263 501.881 23.444 501.297 44.551C500.547 71.845 478.452 105.631 456.972 124.941L208.622 353.467ZM416.76 499.832C414.614 501.958 410.868 501.623 409.304 498.728L294.895 288.572L391.582 199.602L430.808 457.088C433.108 472.037 428.48 488.112 416.76 499.832ZM463.079 355.678L435.455 383.193C434.125 384.523 432.535 385.536 430.803 386.247L425.587 352.006L442.568 335.072C444.359 333.291 447.267 333.289 449.043 335.064L463.073 349.148C464.907 350.984 464.85 353.907 463.079 355.678Z" fill="black"/>
<path d="M454.92 57.1512C445.928 48.1172 431.38 44.1162 420.998 53.9642C418.861 55.9892 418.772 59.3632 420.798 61.5012C422.823 63.6442 426.203 63.7292 428.335 61.7012C434.856 55.5082 443.369 60.6602 447.366 64.6742C451.362 68.6862 456.465 77.2072 450.258 83.6992C448.225 85.8292 448.3 89.2032 450.43 91.2382C452.565 93.2772 455.937 93.1892 457.969 91.0662C467.848 80.7302 463.915 66.1792 454.92 57.1512Z" fill="black"/>
</g>
<defs>
<clipPath id="clip0_1950_3590">
<rect width="512" height="512" fill="white"/>
</clipPath>
</defs>
</svg>
