<svg width="26" height="26" viewBox="0 0 26 26" fill="none" xmlns="http://www.w3.org/2000/svg">
<path d="M25.573 23.523L20.6646 18.629C22.2483 16.6115 23.1076 14.12 23.1044 11.5551C23.1044 9.27089 22.427 7.03796 21.158 5.1387C19.8889 3.23943 18.0852 1.75913 15.9748 0.884999C13.8645 0.0108634 11.5423 -0.21785 9.30197 0.22778C7.06164 0.673411 5.00376 1.77337 3.38856 3.38856C1.77337 5.00376 0.673411 7.06164 0.22778 9.30197C-0.21785 11.5423 0.0108634 13.8645 0.884999 15.9748C1.75913 18.0852 3.23943 19.8889 5.1387 21.158C7.03796 22.427 9.27089 23.1044 11.5551 23.1044C14.12 23.1076 16.6115 22.2483 18.629 20.6646L23.523 25.573C23.6572 25.7083 23.8169 25.8157 23.9928 25.889C24.1688 25.9623 24.3575 26.0001 24.548 26.0001C24.7386 26.0001 24.9273 25.9623 25.1032 25.889C25.2792 25.8157 25.4388 25.7083 25.573 25.573C25.7083 25.4388 25.8157 25.2792 25.889 25.1032C25.9623 24.9273 26.0001 24.7386 26.0001 24.548C26.0001 24.3575 25.9623 24.1688 25.889 23.9928C25.8157 23.8169 25.7083 23.6572 25.573 23.523ZM2.89318 11.5551C2.89318 9.84195 3.40119 8.16725 4.35298 6.7428C5.30476 5.31835 6.65758 4.20813 8.24034 3.55253C9.8231 2.89693 11.5647 2.72539 13.245 3.05961C14.9252 3.39384 16.4686 4.21881 17.68 5.4302C18.8914 6.6416 19.7164 8.18501 20.0506 9.86526C20.3848 11.5455 20.2133 13.2871 19.5577 14.8699C18.9021 16.4527 17.7919 17.8055 16.3674 18.7573C14.943 19.709 13.2683 20.2171 11.5551 20.2171C9.25783 20.2171 7.05463 19.3045 5.4302 17.68C3.80577 16.0556 2.89318 13.8524 2.89318 11.5551Z" fill="url(#paint0_linear_184_1116)"/>
<defs>
<linearGradient id="paint0_linear_184_1116" x1="13.003" y1="0.00585937" x2="13.003" y2="26.0001" gradientUnits="userSpaceOnUse">
<stop stop-color="#4F7677"/>
<stop offset="1" stop-color="#708A84"/>
<stop offset="1.0001" stop-color="#708A84"/>
</linearGradient>
</defs>
</svg>
