<svg width="27" height="28" viewBox="0 0 27 28" fill="none" xmlns="http://www.w3.org/2000/svg">
<path d="M23.815 15.372C23.8705 14.924 23.9121 14.476 23.9121 14C23.9121 13.524 23.8705 13.076 23.815 12.628L26.7434 10.318C27.0071 10.108 27.0765 9.73 26.9099 9.422L24.1342 4.578C23.9676 4.27 23.5929 4.158 23.2876 4.27L19.8318 5.67C19.1101 5.11 18.3329 4.648 17.4863 4.298L16.9589 0.588C16.9172 0.252 16.6258 0 16.2788 0H10.7273C10.3804 0 10.0889 0.252 10.0473 0.588L9.51987 4.298C8.67327 4.648 7.89606 5.124 7.17437 5.67L3.71857 4.27C3.39936 4.144 3.03851 4.27 2.87197 4.578L0.0962233 9.422C-0.0842 9.73 -0.000927518 10.108 0.262768 10.318L3.19118 12.628C3.13566 13.076 3.09403 13.538 3.09403 14C3.09403 14.462 3.13566 14.924 3.19118 15.372L0.262768 17.682C-0.000927518 17.892 -0.0703213 18.27 0.0962233 18.578L2.87197 23.422C3.03851 23.73 3.41324 23.842 3.71857 23.73L7.17437 22.33C7.89606 22.89 8.67327 23.352 9.51987 23.702L10.0473 27.412C10.0889 27.748 10.3804 28 10.7273 28H16.2788C16.6258 28 16.9172 27.748 16.9589 27.412L17.4863 23.702C18.3329 23.352 19.1101 22.876 19.8318 22.33L23.2876 23.73C23.6068 23.856 23.9676 23.73 24.1342 23.422L26.9099 18.578C27.0765 18.27 27.0071 17.892 26.7434 17.682L23.815 15.372ZM13.5031 18.9C10.8245 18.9 8.64551 16.702 8.64551 14C8.64551 11.298 10.8245 9.1 13.5031 9.1C16.1817 9.1 18.3606 11.298 18.3606 14C18.3606 16.702 16.1817 18.9 13.5031 18.9Z" fill="#0D9CDB"/>
</svg>
