<svg width="20" height="20" viewBox="0 0 20 20" fill="none" xmlns="http://www.w3.org/2000/svg">
<path d="M9.98101 0C8.04148 0.00368503 6.14489 0.571311 4.52223 1.63374C2.89958 2.69617 1.6209 4.20754 0.841947 5.98377C0.0629925 7.76 -0.182618 9.72442 0.135032 11.6378C0.452682 13.5511 1.31988 15.3308 2.63101 16.76C3.56743 17.775 4.70395 18.5851 5.96894 19.1392C7.23394 19.6933 8.59999 19.9793 9.98101 19.9793C11.362 19.9793 12.7281 19.6933 13.9931 19.1392C15.2581 18.5851 16.3946 17.775 17.331 16.76C18.6421 15.3308 19.5093 13.5511 19.827 11.6378C20.1446 9.72442 19.899 7.76 19.1201 5.98377C18.3411 4.20754 17.0624 2.69617 15.4398 1.63374C13.8171 0.571311 11.9205 0.00368503 9.98101 0ZM9.98101 18C7.90947 17.9969 5.91992 17.1903 4.43101 15.75C4.88305 14.6495 5.65204 13.7083 6.64026 13.0459C7.62848 12.3835 8.79132 12.0298 9.98101 12.0298C11.1707 12.0298 12.3335 12.3835 13.3218 13.0459C14.31 13.7083 15.079 14.6495 15.531 15.75C14.0421 17.1903 12.0525 17.9969 9.98101 18ZM7.98101 8C7.98101 7.60444 8.0983 7.21776 8.31807 6.88886C8.53783 6.55996 8.85019 6.30362 9.21564 6.15224C9.58109 6.00087 9.98322 5.96126 10.3712 6.03843C10.7591 6.1156 11.1155 6.30608 11.3952 6.58579C11.6749 6.86549 11.8654 7.22186 11.9426 7.60982C12.0197 7.99778 11.9801 8.39991 11.8288 8.76537C11.6774 9.13082 11.421 9.44318 11.0921 9.66294C10.7632 9.8827 10.3766 10 9.98101 10C9.45057 10 8.94186 9.78929 8.56679 9.41421C8.19172 9.03914 7.98101 8.53043 7.98101 8ZM16.891 14C15.9975 12.4718 14.6224 11.283 12.981 10.62C13.4902 10.0427 13.8219 9.33066 13.9365 8.56944C14.051 7.80822 13.9435 7.03011 13.6268 6.3285C13.31 5.62688 12.7976 5.03156 12.1509 4.61397C11.5042 4.19637 10.7508 3.97425 9.98101 3.97425C9.21122 3.97425 8.45778 4.19637 7.8111 4.61397C7.16442 5.03156 6.65198 5.62688 6.33526 6.3285C6.01853 7.03011 5.91099 7.80822 6.02554 8.56944C6.14008 9.33066 6.47184 10.0427 6.98101 10.62C5.3396 11.283 3.96447 12.4718 3.07101 14C2.35895 12.7871 1.98273 11.4065 1.98101 10C1.98101 7.87827 2.82386 5.84344 4.32415 4.34315C5.82444 2.84285 7.85927 2 9.98101 2C12.1027 2 14.1376 2.84285 15.6379 4.34315C17.1382 5.84344 17.981 7.87827 17.981 10C17.9793 11.4065 17.6031 12.7871 16.891 14Z" fill="black"/>
</svg>
