<svg width="16" height="20" viewBox="0 0 16 20" fill="none" xmlns="http://www.w3.org/2000/svg">
<mask id="path-1-inside-1_472_792" fill="white">
<path d="M15.06 13.4467C14.8096 13.1978 14.6681 12.8597 14.6666 12.5067V8.66667C14.6655 7.17307 14.1629 5.72312 13.2393 4.5493C12.3157 3.37549 11.0247 2.54582 9.57333 2.19333C9.63293 2.02404 9.66446 1.84614 9.66666 1.66667C9.66666 1.22464 9.49106 0.800716 9.1785 0.488155C8.86595 0.175595 8.44203 0 8 0C7.55798 0 7.13405 0.175595 6.8215 0.488155C6.50894 0.800716 6.33334 1.22464 6.33334 1.66667C6.33554 1.84614 6.36707 2.02404 6.42668 2.19333C4.97528 2.54582 3.68429 3.37549 2.76072 4.5493C1.83714 5.72312 1.3345 7.17307 1.33337 8.66667V12.5067C1.33188 12.8597 1.19043 13.1978 0.940041 13.4467C0.640038 13.7454 0.402438 14.1008 0.241063 14.4923C0.0796882 14.8837 -0.00223937 15.3033 4.6549e-05 15.7267V16C4.6549e-05 16.3536 0.140521 16.6928 0.390568 16.9428C0.640616 17.1929 0.979752 17.3333 1.33337 17.3333H6.12001C6.0424 17.5471 6.00181 17.7726 6.00001 18C6.00001 18.5304 6.21072 19.0391 6.58579 19.4142C6.96087 19.7893 7.46957 20 8 20C8.53043 20 9.03913 19.7893 9.41421 19.4142C9.78928 19.0391 9.99999 18.5304 9.99999 18C9.99819 17.7726 9.9576 17.5471 9.87999 17.3333H14.6666C15.0202 17.3333 15.3594 17.1929 15.6094 16.9428C15.8595 16.6928 16 16.3536 16 16V15.7267C16.0022 15.3033 15.9203 14.8837 15.7589 14.4923C15.5976 14.1008 15.36 13.7454 15.06 13.4467ZM7.66667 1.66667C7.66667 1.60074 7.68622 1.53629 7.72285 1.48148C7.75947 1.42666 7.81153 1.38394 7.87244 1.35871C7.93335 1.33348 8.00037 1.32688 8.06503 1.33974C8.12969 1.3526 8.18908 1.38435 8.2357 1.43096C8.28232 1.47758 8.31406 1.53698 8.32693 1.60164C8.33979 1.6663 8.33319 1.73332 8.30796 1.79423C8.28273 1.85514 8.24 1.9072 8.18519 1.94382C8.13037 1.98045 8.06593 2 8 2C7.9116 2 7.82681 1.96488 7.7643 1.90237C7.70179 1.83986 7.66667 1.75507 7.66667 1.66667Z"/>
</mask>
<path d="M15.06 13.4467L16.4712 12.0295L16.4699 12.0282L15.06 13.4467ZM14.6666 12.5067H12.6666L12.6666 12.5151L14.6666 12.5067ZM14.6666 8.66667H16.6666L16.6666 8.66516L14.6666 8.66667ZM9.57333 2.19333L7.68683 1.52914L6.95246 3.61496L9.10132 4.13684L9.57333 2.19333ZM9.66666 1.66667L11.6665 1.69119L11.6667 1.67893V1.66667H9.66666ZM6.33334 1.66667H4.33334V1.67893L4.33349 1.69119L6.33334 1.66667ZM6.42668 2.19333L6.89868 4.13684L9.04754 3.61496L8.31317 1.52914L6.42668 2.19333ZM1.33337 8.66667L-0.666628 8.66516V8.66667H1.33337ZM1.33337 12.5067L3.33337 12.5151V12.5067H1.33337ZM0.940041 13.4467L-0.469946 12.0282L-0.471207 12.0295L0.940041 13.4467ZM4.6549e-05 15.7267H2.00008L2.00002 15.7159L4.6549e-05 15.7267ZM4.6549e-05 16H-1.99995H4.6549e-05ZM6.12001 17.3333L7.99995 18.0159L8.97385 15.3333H6.12001V17.3333ZM6.00001 18L4.00007 17.9841L4.00001 17.9921V18H6.00001ZM9.99999 18H12V17.9921L11.9999 17.9841L9.99999 18ZM9.87999 17.3333V15.3333H7.02615L8.00005 18.0159L9.87999 17.3333ZM16 15.7267L14 15.7159V15.7267H16ZM16.4699 12.0282C16.5951 12.1527 16.6659 12.3217 16.6666 12.4982L12.6666 12.5151C12.6704 13.3977 13.024 14.2428 13.65 14.8651L16.4699 12.0282ZM16.6666 12.5067V8.66667H12.6666V12.5067H16.6666ZM16.6666 8.66516C16.6652 6.72349 16.0117 4.83855 14.8111 3.31259L11.6675 5.78601C12.314 6.60768 12.6658 7.62265 12.6666 8.66817L16.6666 8.66516ZM14.8111 3.31259C13.6104 1.78664 11.9322 0.708064 10.0453 0.249828L9.10132 4.13684C10.1173 4.38358 11.021 4.96435 11.6675 5.78601L14.8111 3.31259ZM11.4598 2.85753C11.5918 2.48261 11.6616 2.08863 11.6665 1.69119L7.66681 1.64215C7.66728 1.60364 7.67404 1.56547 7.68683 1.52914L11.4598 2.85753ZM11.6667 1.66667C11.6667 0.69421 11.2804 -0.23842 10.5927 -0.926054L7.76429 1.90236C7.70177 1.83985 7.66666 1.75507 7.66666 1.66667H11.6667ZM10.5927 -0.926054C9.90509 -1.61369 8.97246 -2 8 -2V2C7.91159 2 7.8268 1.96488 7.76429 1.90236L10.5927 -0.926054ZM8 -2C7.02754 -2 6.09491 -1.61369 5.40728 -0.926054L8.23571 1.90236C8.1732 1.96488 8.08841 2 8 2V-2ZM5.40728 -0.926054C4.71965 -0.23842 4.33334 0.69421 4.33334 1.66667H8.33334C8.33334 1.75507 8.29823 1.83985 8.23571 1.90236L5.40728 -0.926054ZM4.33349 1.69119C4.33837 2.08864 4.40819 2.48261 4.54019 2.85753L8.31317 1.52914C8.32596 1.56546 8.33272 1.60364 8.33319 1.64215L4.33349 1.69119ZM5.95467 0.249828C4.06785 0.708064 2.38956 1.78664 1.18892 3.31259L4.33251 5.78601C4.97901 4.96435 5.8827 4.38358 6.89868 4.13684L5.95467 0.249828ZM1.18892 3.31259C-0.0117242 4.83855 -0.665165 6.72349 -0.666627 8.66516L3.33337 8.66817C3.33416 7.62265 3.68601 6.60768 4.33251 5.78601L1.18892 3.31259ZM-0.666628 8.66667V12.5067H3.33337V8.66667H-0.666628ZM-0.66661 12.4982C-0.665866 12.3217 -0.595141 12.1527 -0.469945 12.0282L2.35003 14.8651C2.976 14.2428 3.32963 13.3977 3.33335 12.5151L-0.66661 12.4982ZM-0.471207 12.0295C-0.959103 12.5154 -1.34551 13.0934 -1.60796 13.7299L2.09008 15.2546C2.15039 15.1083 2.23918 14.9755 2.35129 14.8638L-0.471207 12.0295ZM-1.60796 13.7299C-1.8704 14.3665 -2.00364 15.0489 -1.99992 15.7375L2.00002 15.7159C1.99916 15.5577 2.02978 15.4008 2.09008 15.2546L-1.60796 13.7299ZM-1.99995 15.7267V16H2.00005V15.7267H-1.99995ZM-1.99995 16C-1.99995 16.8841 -1.64877 17.7319 -1.02365 18.357L1.80479 15.5286C1.92981 15.6536 2.00005 15.8232 2.00005 16H-1.99995ZM-1.02365 18.357C-0.398531 18.9821 0.449315 19.3333 1.33337 19.3333V15.3333C1.51019 15.3333 1.67976 15.4036 1.80479 15.5286L-1.02365 18.357ZM1.33337 19.3333H6.12001V15.3333H1.33337V19.3333ZM4.24007 16.6508C4.08484 17.0784 4.00368 17.5293 4.00007 17.9841L7.99995 18.0159L7.99995 18.0159L4.24007 16.6508ZM4.00001 18C4.00001 19.0609 4.42143 20.0783 5.17158 20.8284L8.00001 18L8.00001 18H4.00001ZM5.17158 20.8284C5.92172 21.5786 6.93913 22 8 22V18L8.00001 18L5.17158 20.8284ZM8 22C9.06087 22 10.0783 21.5786 10.8284 20.8284L7.99999 18L8 18V22ZM10.8284 20.8284C11.5786 20.0783 12 19.0609 12 18H7.99999L7.99999 18L10.8284 20.8284ZM11.9999 17.9841C11.9963 17.5293 11.9152 17.0784 11.7599 16.6508L8.00005 18.0159L8.00005 18.0159L11.9999 17.9841ZM9.87999 19.3333H14.6666V15.3333H9.87999V19.3333ZM14.6666 19.3333C15.5507 19.3333 16.3985 18.9821 17.0236 18.357L14.1952 15.5286C14.3202 15.4036 14.4898 15.3333 14.6666 15.3333V19.3333ZM17.0236 18.357C17.6488 17.7319 18 16.8841 18 16H14C14 15.8232 14.0702 15.6536 14.1952 15.5286L17.0236 18.357ZM18 16V15.7267H14V16H18ZM17.9999 15.7375C18.0036 15.0489 17.8704 14.3665 17.608 13.7299L13.9099 15.2546C13.9702 15.4008 14.0008 15.5577 14 15.7159L17.9999 15.7375ZM17.608 13.7299C17.3455 13.0934 16.9591 12.5154 16.4712 12.0295L13.6487 14.8638C13.7608 14.9755 13.8496 15.1083 13.9099 15.2546L17.608 13.7299ZM9.66667 1.66667C9.66667 1.99629 9.56892 2.31853 9.38579 2.59261L6.0599 0.370341C5.80351 0.75406 5.66667 1.20519 5.66667 1.66667H9.66667ZM9.38579 2.59261C9.20265 2.8667 8.94235 3.08032 8.63781 3.20646L7.10707 -0.489051C6.68071 -0.312447 6.31629 -0.0133786 6.0599 0.370341L9.38579 2.59261ZM8.63781 3.20646C8.33327 3.33261 7.99815 3.36562 7.67485 3.30131L8.45521 -0.621832C8.00259 -0.711865 7.53343 -0.665657 7.10707 -0.489051L8.63781 3.20646ZM7.67485 3.30131C7.35154 3.237 7.05457 3.07826 6.82148 2.84517L9.64992 0.0167551C9.3236 -0.309567 8.90784 -0.531798 8.45521 -0.621832L7.67485 3.30131ZM6.82148 2.84517C6.58839 2.61208 6.42966 2.31511 6.36536 1.99182L10.2885 1.21146C10.1985 0.758842 9.97624 0.343081 9.64992 0.0167551L6.82148 2.84517ZM6.36536 1.99182C6.30105 1.6685 6.33406 1.33339 6.4602 1.02886L10.1557 2.55959C10.3323 2.13324 10.3785 1.66409 10.2885 1.21146L6.36536 1.99182ZM6.4602 1.02886C6.58634 0.724324 6.79996 0.464025 7.07404 0.280887L9.29633 3.60676C9.68005 3.35037 9.97912 2.98595 10.1557 2.55959L6.4602 1.02886ZM7.07404 0.280887C7.34812 0.0977519 7.67036 5.96046e-08 8 5.96046e-08V4C8.4615 4 8.91262 3.86315 9.29633 3.60676L7.07404 0.280887ZM8 5.96046e-08C8.44203 5.96046e-08 8.86596 0.175597 9.17852 0.488159L6.35008 3.31658C6.78767 3.75416 7.38116 4 8 4V5.96046e-08ZM9.17852 0.488159C9.49108 0.800723 9.66667 1.22465 9.66667 1.66667H5.66667C5.66667 2.2855 5.9125 2.87899 6.35008 3.31658L9.17852 0.488159Z" fill="black" mask="url(#path-1-inside-1_472_792)"/>
</svg>
