<svg width="24" height="20" viewBox="0 0 24 20" fill="none" xmlns="http://www.w3.org/2000/svg">
<path fill-rule="evenodd" clip-rule="evenodd" d="M3.8335 0.666992C2.90524 0.666992 2.015 1.03574 1.35862 1.69212C0.702245 2.3485 0.333496 3.23873 0.333496 4.16699V15.8337C0.333496 16.7619 0.702245 17.6522 1.35862 18.3085C2.015 18.9649 2.90524 19.3337 3.8335 19.3337H20.1668C21.0951 19.3337 21.9853 18.9649 22.6417 18.3085C23.2981 17.6522 23.6668 16.7619 23.6668 15.8337V4.16699C23.6668 3.23873 23.2981 2.3485 22.6417 1.69212C21.9853 1.03574 21.0951 0.666992 20.1668 0.666992H3.8335ZM20.1668 2.41699H3.8335C3.36937 2.41699 2.92425 2.60137 2.59606 2.92955C2.26787 3.25774 2.0835 3.70286 2.0835 4.16699V5.62533H21.9168V4.16699C21.9168 3.70286 21.7325 3.25774 21.4043 2.92955C21.0761 2.60137 20.631 2.41699 20.1668 2.41699ZM2.0835 15.8337V7.37533H21.9168V15.8337C21.9168 16.2978 21.7325 16.7429 21.4043 17.0711C21.0761 17.3993 20.631 17.5837 20.1668 17.5837H3.8335C3.36937 17.5837 2.92425 17.3993 2.59606 17.0711C2.26787 16.7429 2.0835 16.2978 2.0835 15.8337Z" fill="black"/>
</svg>
