<svg width="26" height="26" viewBox="0 0 26 26" fill="none" xmlns="http://www.w3.org/2000/svg">
<path d="M9.99709 12.7244L14.7406 7.96509C15.1723 7.53193 15.8733 7.53095 16.3062 7.963C16.6911 8.34716 16.7341 8.94371 16.4359 9.3758L16.4295 9.38513L16.4222 9.39384L16.3232 9.51273L16.316 9.52128L16.3082 9.52917L10.782 15.074L10.782 15.074C10.3977 15.4594 9.80064 15.5024 9.36863 15.2032L9.35932 15.1967L9.35063 15.1895L9.23184 15.0901L9.22325 15.083L9.21534 15.0751L6.21597 12.0736C6.21596 12.0736 6.21596 12.0736 6.21596 12.0736C5.78373 11.6411 5.78373 10.9399 6.21596 10.5074L9.99709 12.7244ZM9.99709 12.7244L7.78155 10.5074L7.77366 10.4995L7.76509 10.4923L7.64642 10.3931L7.63775 10.3859L7.62847 10.3794C7.19688 10.0803 6.60041 10.1227 6.21597 10.5074L9.99709 12.7244ZM21.8171 11.2948H21.8172V11.2905C21.8172 5.46929 17.1013 0.75 11.2836 0.75C5.46589 0.75 0.75 5.4693 0.75 11.2905C0.75 17.1117 5.46589 21.831 11.2836 21.831C11.8833 21.831 12.4714 21.7808 13.0441 21.6843L13.2525 21.6492V21.4378V19.6934V19.3873L12.9526 19.4484C12.4136 19.5583 11.8555 19.6159 11.2836 19.6159C6.68893 19.6159 2.96393 15.8886 2.96393 11.2905C2.96393 6.69234 6.68893 2.96508 11.2836 2.96508C15.8781 2.96508 19.6032 6.69221 19.6032 11.2974V11.5474L19.8532 11.5474C20.4253 11.5474 20.9688 11.6664 21.4612 11.8807L21.8046 12.0302L21.811 11.6558L21.8171 11.2948ZM22.6741 15.5851C22.6741 14.0264 21.4113 12.7625 19.8532 12.7625C18.2952 12.7625 17.0323 14.0264 17.0323 15.5851V16.1942C15.5937 16.3232 14.4664 17.5326 14.4664 19.0054V22.4274C14.4664 23.9861 15.7293 25.25 17.2873 25.25H22.4291C23.9873 25.25 25.25 23.9861 25.25 22.4274V19.0054C25.25 17.5303 24.1195 16.3199 22.6741 16.1937V15.5851ZM17.2873 18.3979H22.4179L22.5486 18.4096C22.8265 18.465 23.0361 18.7108 23.0361 19.0054V22.4162L23.0244 22.547C22.969 22.8253 22.7232 23.0349 22.4291 23.0349H17.2985L17.1678 23.0232C16.89 22.9678 16.6803 22.7218 16.6803 22.4274V19.0166L16.6921 18.8858C16.7475 18.6074 16.9933 18.3979 17.2873 18.3979ZM20.9652 20.7164C20.9652 20.105 20.4699 19.6089 19.8582 19.6089C19.2468 19.6089 18.7512 20.105 18.7512 20.7164C18.7512 21.3279 19.2468 21.824 19.8582 21.824C20.4699 21.824 20.9652 21.3278 20.9652 20.7164ZM19.258 15.4655C19.3134 15.1871 19.5593 14.9775 19.8532 14.9775C20.1882 14.9775 20.4602 15.2494 20.4602 15.5851V16.1828H19.2463V15.5962L19.258 15.4655Z" fill="#212121" stroke="black" stroke-width="0.5"/>
</svg>
