<svg width="18" height="24" viewBox="0 0 18 24" fill="none" xmlns="http://www.w3.org/2000/svg">
<path d="M1.11161 9.10556L1.11162 9.10557L1.11448 9.10554C1.19816 9.10455 1.2812 9.12037 1.35869 9.15206C1.43619 9.18376 1.50652 9.23067 1.56551 9.29001C1.62451 9.34935 1.67101 9.41995 1.70226 9.49762C1.7335 9.57528 1.74884 9.65841 1.74737 9.74209L1.7473 9.74209V9.75087V13.1252C1.7473 16.5216 4.47193 19.2571 7.87042 19.2571H10.1236C13.5221 19.2571 16.2468 16.5216 16.2468 13.1252V9.75087C16.2468 9.58469 16.3128 9.42531 16.4303 9.30779C16.5478 9.19027 16.7072 9.12426 16.8734 9.12426C17.0395 9.12426 17.1989 9.19027 17.3164 9.30779C17.434 9.42531 17.5 9.58469 17.5 9.75087V13.1252C17.5 17.1876 14.1846 20.5103 10.1236 20.5103V21.0103V21.5103H12.3746V21.5104L12.3859 21.5102C12.4692 21.5083 12.5521 21.5231 12.6296 21.5537C12.7072 21.5843 12.7778 21.6301 12.8374 21.6884C12.897 21.7467 12.9444 21.8162 12.9767 21.8931C13.009 21.9699 13.0257 22.0525 13.0257 22.1358C13.0257 22.2192 13.009 22.3017 12.9767 22.3786C12.9444 22.4554 12.897 22.525 12.8374 22.5833C12.7778 22.6415 12.7072 22.6873 12.6296 22.7179C12.5521 22.7485 12.4692 22.7633 12.3859 22.7615L12.3859 22.7613H12.3746H5.61941V22.7612L5.60685 22.7615C5.44305 22.7656 5.28416 22.7055 5.16415 22.5939C5.04414 22.4823 4.97256 22.3282 4.96473 22.1646C4.9569 22.0009 5.01344 21.8407 5.12224 21.7182C5.22979 21.5971 5.37997 21.5223 5.54128 21.5095C5.55934 21.5088 5.57743 21.5089 5.59549 21.5097L5.60744 21.5103H5.61941H7.87042V21.0103V20.5103C3.8096 20.5103 0.496273 17.1878 0.496273 13.1252V9.75087H0.496355L0.496191 9.7418C0.493373 9.58642 0.548483 9.43556 0.650794 9.31859C0.752786 9.20198 0.89441 9.12737 1.04824 9.10918C1.0694 9.1069 1.09055 9.10569 1.11161 9.10556ZM3.86839 6.37875C3.8684 3.56023 6.18399 1.24462 9.00252 1.24462C11.8198 1.24462 14.1256 3.55896 14.1257 6.37875V12.0041C14.1256 14.8226 11.821 17.1272 9.00252 17.1272C6.18272 17.1272 3.8684 14.8213 3.86839 12.0041V6.37875ZM12.8746 6.37875C12.8746 4.22618 11.1585 2.49784 9.00252 2.49784C6.84867 2.49784 5.11941 4.22406 5.11941 6.37875V12.0041C5.11941 14.1605 6.85038 15.8762 9.00252 15.8762C11.1568 15.8762 12.8746 14.1583 12.8746 12.0041V6.37875Z" fill="#0D9CDB" stroke="#0D9CDB" stroke-width="0.999987"/>
<path d="M9.00098 22.1354V19.8843Z" fill="#0D9CDB"/>
<path d="M9.00098 22.1354V19.8843" stroke="#0D9CDB" stroke-width="1.99937" stroke-linecap="round" stroke-linejoin="round"/>
</svg>
