<svg width="104" height="12" viewBox="0 0 104 12" fill="none" xmlns="http://www.w3.org/2000/svg">
<path fill-rule="evenodd" clip-rule="evenodd" d="M41.9598 5.89144C55.7388 5.88079 69.5326 5.28425 83.2678 4.06983C89.798 3.49233 97.3699 3.67829 103.725 1.49364C104.042 1.38366 103.987 1.04007 103.98 1.0057C103.968 0.935331 103.914 0.701158 103.663 0.686327C103.635 0.684325 103.443 0.714362 103.369 0.724789C101.497 0.993257 99.6316 1.31076 97.7588 1.56289C91.2928 2.43675 84.8109 3.07531 78.3207 3.62397C69.7062 4.35279 61.0234 4.68561 52.3924 4.92118C47.6681 5.04974 42.8366 4.72791 38.0945 5.06193C36.3549 5.04977 34.6155 5.02777 32.8761 4.99765C25.605 4.86802 18.3462 4.4398 11.0931 3.88922C8.7608 3.71229 6.98258 3.53145 4.69888 3.39436C3.83176 3.34179 2.45561 3.29536 1.49814 3.26442C1.35766 3.25925 0.998903 3.25115 0.850219 3.2475C0.835258 3.24403 0.820237 3.24383 0.803866 3.2436C0.746567 3.24283 0.719228 3.24736 0.713773 3.24728C0.388298 3.30001 0.413329 3.66766 0.420762 3.72326C0.421965 3.73471 0.466864 4.0455 0.746377 4.06072C0.813191 4.06489 1.29201 4.07462 1.47614 4.08038C2.42815 4.11125 3.79884 4.1576 4.66189 4.20849C6.94149 4.34552 8.71837 4.52634 11.0466 4.70321C18.3106 5.25395 25.5803 5.68395 32.8623 5.81373C33.7518 5.82906 34.6426 5.84278 35.5321 5.85321C35.5609 5.94665 35.6263 6.05202 35.773 6.09972C35.9102 6.14403 36.8961 6.19494 37.2762 6.23765C40.0896 6.55333 40.0066 6.53915 43.1031 6.80807C47.7929 7.21614 48.5067 7.30422 53.3874 7.51571C62.2529 7.90042 71.1263 7.99952 79.9971 8.09372C84.3766 8.13842 89.0704 7.84783 93.5075 8.56919C92.0395 8.75497 90.5668 8.88519 89.0965 9.03666C84.0763 9.55302 79.055 9.84735 74.0188 10.0337C61.9382 10.4804 49.8434 10.5596 37.7865 9.56351C40.3558 9.56897 42.9242 9.53526 45.4937 9.52603C55.9533 9.48505 66.5094 9.76534 76.9575 8.95855C77.1447 8.94313 77.2878 8.74918 77.2772 8.52538C77.2666 8.29995 77.1039 8.12958 76.9167 8.14337C66.4823 8.95035 55.9411 8.66862 45.4952 8.70979C41.6144 8.72409 37.7342 8.79226 33.8547 8.70372C32.5234 8.67261 31.1926 8.59578 29.8614 8.55813C29.5981 8.54966 28.9209 8.47844 28.8237 8.50324C28.6088 8.55747 28.5598 8.74619 28.5449 8.83904C28.5374 8.89445 28.5112 9.21407 28.837 9.33276C31.0611 10.1433 35.1858 10.1633 37.3556 10.3462C49.5608 11.377 61.8056 11.3014 74.0364 10.8502C79.0849 10.6624 84.1185 10.3666 89.1524 9.84878C90.9109 9.66857 92.6732 9.51616 94.4259 9.26893C94.7089 9.22869 95.3441 9.17363 95.652 9.11087C95.7806 9.08486 95.8739 9.04697 95.9152 9.01978C96.0763 8.91422 96.1071 8.75791 96.1085 8.65181C96.111 8.57022 96.0862 8.28256 95.753 8.19968C90.6764 6.93745 85.1285 7.33072 80.0068 7.27758C71.1415 7.18346 62.2749 7.08446 53.4149 6.69982C48.5464 6.48849 47.8353 6.40209 43.1551 5.99414C42.6931 5.95523 42.3019 5.92057 41.9598 5.89144Z" fill="#0D9CDB"/>
</svg>
